<svg xmlns="http://www.w3.org/2000/svg" xmlns:xlink="http://www.w3.org/1999/xlink" width="1024" zoomAndPan="magnify" viewBox="0 0 768 576" height="768" preserveAspectRatio="xMidYMid meet" version="1.0"><defs><clipPath id="d395094c37"><path d="M 191.300781 139 L 576.800781 139 L 576.800781 437.398438 L 191.300781 437.398438 Z M 191.300781 139 " clip-rule="nonzero"/></clipPath></defs><g clip-path="url(#d395094c37)"><path fill="#ffffff" d="M 420.785156 216.589844 L 252.988281 216.589844 L 252.988281 371.320312 L 499.503906 371.320312 L 499.503906 293.019531 C 499.503906 290.042969 501.914062 287.632812 504.890625 287.632812 C 507.863281 287.632812 510.273438 290.042969 510.273438 293.019531 L 510.273438 376.707031 C 510.273438 379.683594 507.863281 382.09375 504.890625 382.09375 L 247.605469 382.09375 C 244.628906 382.09375 242.21875 379.683594 242.21875 376.707031 L 242.21875 211.203125 C 242.21875 208.226562 244.628906 205.816406 247.605469 205.816406 L 420.785156 205.816406 C 423.757812 205.816406 426.171875 208.226562 426.171875 211.203125 C 426.171875 214.179688 423.757812 216.589844 420.785156 216.589844 Z M 555.5 400.214844 L 555.5 415.9375 C 555.5 427.574219 546.03125 437.042969 534.394531 437.042969 L 212.410156 437.042969 C 200.769531 437.042969 191.300781 427.574219 191.300781 415.9375 L 191.300781 400.214844 C 191.300781 397.242188 193.710938 394.828125 196.6875 394.828125 L 218.710938 394.828125 L 218.710938 197.640625 C 218.710938 189.1875 225.578125 182.308594 234.019531 182.308594 L 426.171875 182.308594 C 429.144531 182.308594 431.554688 184.71875 431.554688 187.695312 C 431.554688 190.671875 429.144531 193.082031 426.171875 193.082031 L 234.019531 193.082031 C 231.515625 193.082031 229.484375 195.125 229.484375 197.640625 L 229.484375 394.828125 L 523.03125 394.828125 L 523.03125 290.03125 C 523.03125 287.054688 525.441406 284.644531 528.417969 284.644531 C 531.390625 284.644531 533.804688 287.054688 533.804688 290.03125 L 533.804688 394.828125 L 550.113281 394.828125 C 553.089844 394.828125 555.5 397.242188 555.5 400.214844 Z M 544.730469 405.601562 L 202.074219 405.601562 L 202.074219 415.9375 C 202.074219 421.636719 206.710938 426.273438 212.410156 426.273438 L 534.394531 426.273438 C 540.09375 426.273438 544.730469 421.636719 544.730469 415.9375 Z M 576.695312 211.203125 C 576.695312 215.753906 576.273438 220.277344 575.445312 224.636719 C 575.085938 226.519531 573.757812 228.070312 571.949219 228.710938 L 559.722656 233.035156 C 559.519531 233.539062 559.3125 234.042969 559.097656 234.542969 L 564.679688 246.234375 C 565.503906 247.960938 565.347656 249.996094 564.277344 251.578125 C 559.179688 259.09375 552.78125 265.492188 545.265625 270.589844 C 543.683594 271.660156 541.652344 271.816406 539.929688 270.996094 L 528.210938 265.417969 C 527.710938 265.632812 527.214844 265.839844 526.722656 266.035156 L 522.398438 278.261719 C 521.757812 280.070312 520.203125 281.402344 518.320312 281.761719 C 513.9375 282.589844 509.421875 283.007812 504.890625 283.007812 C 500.359375 283.007812 495.839844 282.589844 491.460938 281.761719 C 489.574219 281.402344 488.023438 280.070312 487.382812 278.261719 L 483.054688 266.035156 C 482.566406 265.839844 482.070312 265.632812 481.570312 265.417969 L 469.851562 270.996094 C 468.121094 271.816406 466.085938 271.660156 464.507812 270.585938 C 457.019531 265.488281 450.625 259.097656 445.507812 251.589844 C 444.429688 250.003906 444.273438 247.964844 445.101562 246.234375 L 450.6875 234.535156 C 450.476562 234.046875 450.269531 233.550781 450.066406 233.039062 L 437.828125 228.710938 C 436.011719 228.066406 434.679688 226.503906 434.328125 224.609375 C 433.5 220.136719 433.082031 215.628906 433.082031 211.203125 C 433.082031 206.800781 433.5 202.292969 434.328125 197.800781 C 434.675781 195.902344 436.011719 194.339844 437.828125 193.695312 L 450.070312 189.363281 C 450.269531 188.863281 450.476562 188.371094 450.683594 187.886719 L 445.097656 176.167969 C 444.273438 174.433594 444.429688 172.394531 445.515625 170.808594 C 450.628906 163.328125 457.015625 156.941406 464.496094 151.828125 C 466.082031 150.742188 468.125 150.585938 469.855469 151.414062 L 481.570312 157.007812 C 482.066406 156.792969 482.558594 156.585938 483.050781 156.390625 L 487.382812 144.160156 C 488.023438 142.355469 489.574219 141.023438 491.457031 140.667969 C 500.378906 138.980469 509.398438 138.980469 518.320312 140.667969 C 520.203125 141.023438 521.753906 142.355469 522.394531 144.160156 L 526.726562 156.390625 C 527.21875 156.585938 527.710938 156.792969 528.207031 157.007812 L 539.921875 151.414062 C 541.652344 150.585938 543.691406 150.742188 545.273438 151.824219 C 552.785156 156.941406 559.175781 163.332031 564.269531 170.820312 C 565.347656 172.402344 565.503906 174.433594 564.679688 176.164062 L 559.105469 187.882812 C 559.320312 188.382812 559.523438 188.878906 559.71875 189.371094 L 571.949219 193.695312 C 573.757812 194.335938 575.089844 195.886719 575.445312 197.773438 C 576.277344 202.15625 576.695312 206.671875 576.695312 211.203125 Z M 565.925781 211.203125 C 565.925781 208.375 565.730469 205.558594 565.351562 202.789062 L 553.746094 198.683594 C 552.195312 198.132812 550.976562 196.902344 550.445312 195.34375 C 549.875 193.671875 549.175781 191.972656 548.304688 190.144531 C 547.605469 188.679688 547.605469 186.976562 548.304688 185.511719 L 553.589844 174.402344 C 550.1875 169.902344 546.203125 165.914062 541.6875 162.503906 L 530.585938 167.804688 C 529.117188 168.507812 527.414062 168.507812 525.945312 167.808594 C 524.148438 166.949219 522.433594 166.238281 520.699219 165.628906 C 519.164062 165.089844 517.953125 163.882812 517.410156 162.34375 L 513.304688 150.757812 C 507.679688 149.972656 502.097656 149.972656 496.472656 150.757812 L 492.367188 162.34375 C 491.824219 163.882812 490.613281 165.089844 489.078125 165.628906 C 487.34375 166.238281 485.628906 166.949219 483.832031 167.808594 C 482.363281 168.507812 480.660156 168.503906 479.191406 167.804688 L 468.089844 162.507812 C 463.589844 165.917969 459.605469 169.90625 456.191406 174.40625 L 461.492188 185.53125 C 462.203125 187.019531 462.191406 188.753906 461.460938 190.234375 C 460.683594 191.804688 459.984375 193.492188 459.3125 195.390625 C 458.773438 196.929688 457.566406 198.140625 456.03125 198.683594 L 444.433594 202.785156 C 444.046875 205.621094 443.855469 208.4375 443.855469 211.203125 C 443.855469 213.976562 444.046875 216.796875 444.433594 219.621094 L 456.03125 223.722656 C 457.566406 224.265625 458.773438 225.476562 459.3125 227.011719 C 460 228.960938 460.703125 230.65625 461.460938 232.195312 C 462.191406 233.675781 462.203125 235.410156 461.492188 236.898438 L 456.191406 248.003906 C 459.601562 252.515625 463.589844 256.503906 468.089844 259.902344 L 479.199219 254.617188 C 480.664062 253.921875 482.363281 253.921875 483.828125 254.621094 C 485.660156 255.492188 487.359375 256.191406 489.027344 256.761719 C 490.585938 257.292969 491.816406 258.507812 492.367188 260.0625 L 496.472656 271.667969 C 502.011719 272.421875 507.765625 272.421875 513.300781 271.667969 L 517.40625 260.0625 C 517.957031 258.507812 519.1875 257.292969 520.746094 256.761719 C 522.417969 256.191406 524.117188 255.492188 525.945312 254.621094 C 527.410156 253.921875 529.113281 253.921875 530.578125 254.617188 L 541.691406 259.90625 C 546.203125 256.507812 550.1875 252.523438 553.585938 248.011719 L 548.28125 236.898438 C 547.570312 235.410156 547.582031 233.675781 548.3125 232.195312 C 549.128906 230.542969 549.847656 228.816406 550.441406 227.0625 C 550.976562 225.503906 552.191406 224.273438 553.746094 223.722656 L 565.351562 219.617188 C 565.734375 216.859375 565.925781 214.039062 565.925781 211.203125 Z M 542.351562 211.203125 C 542.351562 231.859375 525.546875 248.664062 504.890625 248.664062 C 484.246094 248.664062 467.449219 231.859375 467.449219 211.203125 C 467.449219 190.558594 484.246094 173.761719 504.890625 173.761719 C 525.546875 173.761719 542.351562 190.558594 542.351562 211.203125 Z M 531.578125 211.203125 C 531.578125 196.5 519.605469 184.535156 504.890625 184.535156 C 490.183594 184.535156 478.222656 196.5 478.222656 211.203125 C 478.222656 225.917969 490.183594 237.890625 504.890625 237.890625 C 519.605469 237.890625 531.578125 225.917969 531.578125 211.203125 Z M 282.144531 277.207031 C 283.472656 277.207031 284.804688 276.71875 285.847656 275.734375 C 288.007812 273.691406 288.101562 270.28125 286.058594 268.121094 L 276.972656 258.519531 L 286.058594 248.894531 C 288.101562 246.734375 288.003906 243.324219 285.84375 241.28125 C 283.679688 239.238281 280.269531 239.335938 278.230469 241.5 L 265.644531 254.824219 C 263.683594 256.898438 263.6875 260.144531 265.648438 262.222656 L 278.230469 275.523438 C 279.289062 276.644531 280.714844 277.207031 282.144531 277.207031 Z M 331.453125 275.734375 C 332.492188 276.71875 333.824219 277.207031 335.152344 277.207031 C 336.582031 277.207031 338.007812 276.644531 339.066406 275.523438 L 351.648438 262.222656 C 353.613281 260.148438 353.613281 256.898438 351.652344 254.824219 L 339.070312 241.5 C 337.027344 239.339844 333.617188 239.242188 331.457031 241.28125 C 329.292969 243.324219 329.195312 246.734375 331.238281 248.898438 L 340.324219 258.519531 L 331.242188 268.121094 C 329.199219 270.28125 329.292969 273.691406 331.453125 275.734375 Z M 293.957031 289.355469 C 295.820312 289.355469 297.628906 288.386719 298.628906 286.660156 L 328 235.765625 C 329.488281 233.191406 328.605469 229.898438 326.027344 228.410156 C 323.453125 226.925781 320.15625 227.804688 318.671875 230.382812 L 289.296875 281.277344 C 287.8125 283.855469 288.695312 287.144531 291.269531 288.632812 C 292.117188 289.121094 293.042969 289.355469 293.957031 289.355469 Z M 356.21875 310.308594 L 290.605469 310.308594 C 287.628906 310.308594 285.21875 312.71875 285.21875 315.695312 C 285.21875 318.671875 287.628906 321.082031 290.605469 321.082031 L 356.21875 321.082031 C 359.191406 321.082031 361.605469 318.671875 361.605469 315.695312 C 361.605469 312.71875 359.191406 310.308594 356.21875 310.308594 Z M 270.324219 310.308594 L 269.5625 310.308594 C 266.585938 310.308594 264.175781 312.71875 264.175781 315.695312 C 264.175781 318.671875 266.585938 321.082031 269.5625 321.082031 L 270.324219 321.082031 C 273.300781 321.082031 275.710938 318.671875 275.710938 315.695312 C 275.710938 312.71875 273.300781 310.308594 270.324219 310.308594 Z M 356.21875 329.695312 L 290.605469 329.695312 C 287.628906 329.695312 285.21875 332.105469 285.21875 335.082031 C 285.21875 338.054688 287.628906 340.46875 290.605469 340.46875 L 356.21875 340.46875 C 359.191406 340.46875 361.605469 338.054688 361.605469 335.082031 C 361.605469 332.105469 359.191406 329.695312 356.21875 329.695312 Z M 270.324219 329.695312 L 269.5625 329.695312 C 266.585938 329.695312 264.175781 332.105469 264.175781 335.082031 C 264.175781 338.054688 266.585938 340.46875 269.5625 340.46875 L 270.324219 340.46875 C 273.300781 340.46875 275.710938 338.054688 275.710938 335.082031 C 275.710938 332.105469 273.300781 329.695312 270.324219 329.695312 Z M 356.21875 349.082031 L 290.605469 349.082031 C 287.628906 349.082031 285.21875 351.492188 285.21875 354.46875 C 285.21875 357.441406 287.628906 359.851562 290.605469 359.851562 L 356.21875 359.851562 C 359.191406 359.851562 361.605469 357.441406 361.605469 354.46875 C 361.605469 351.492188 359.191406 349.082031 356.21875 349.082031 Z M 270.324219 349.082031 L 269.5625 349.082031 C 266.585938 349.082031 264.175781 351.492188 264.175781 354.46875 C 264.175781 357.441406 266.585938 359.851562 269.5625 359.851562 L 270.324219 359.851562 C 273.300781 359.851562 275.710938 357.441406 275.710938 354.46875 C 275.710938 351.492188 273.300781 349.082031 270.324219 349.082031 Z M 438.140625 299.777344 C 435.167969 299.777344 432.757812 302.1875 432.757812 305.164062 L 432.757812 349.082031 L 429.964844 349.082031 L 429.964844 321.015625 C 429.964844 318.042969 427.554688 315.628906 424.578125 315.628906 C 421.605469 315.628906 419.195312 318.042969 419.195312 321.015625 L 419.195312 349.082031 L 416.382812 349.082031 L 416.382812 336.171875 C 416.382812 333.195312 413.96875 330.785156 410.996094 330.785156 C 408.019531 330.785156 405.609375 333.195312 405.609375 336.171875 L 405.609375 349.082031 L 402.078125 349.082031 L 402.078125 283.726562 C 402.078125 280.753906 399.664062 278.34375 396.691406 278.34375 C 393.714844 278.34375 391.304688 280.753906 391.304688 283.726562 L 391.304688 354.464844 C 391.304688 357.441406 393.714844 359.851562 396.691406 359.851562 L 487.207031 359.851562 C 490.179688 359.851562 492.59375 357.441406 492.59375 354.464844 C 492.59375 351.492188 490.179688 349.078125 487.207031 349.078125 L 484.242188 349.078125 L 484.242188 333.074219 C 484.242188 330.097656 481.832031 327.6875 478.855469 327.6875 C 475.882812 327.6875 473.46875 330.097656 473.46875 333.074219 L 473.46875 349.078125 L 470.679688 349.078125 L 470.679688 315.804688 C 470.679688 312.828125 468.265625 310.417969 465.292969 310.417969 C 462.320312 310.417969 459.90625 312.828125 459.90625 315.804688 L 459.90625 349.082031 L 457.09375 349.082031 L 457.09375 331.964844 C 457.09375 328.988281 454.683594 326.578125 451.707031 326.578125 C 448.734375 326.578125 446.324219 328.988281 446.324219 331.964844 L 446.324219 349.082031 L 443.53125 349.082031 L 443.53125 305.164062 C 443.527344 302.1875 441.117188 299.777344 438.140625 299.777344 Z M 438.140625 299.777344 " fill-opacity="1" fill-rule="nonzero"/></g></svg>