<svg xmlns="http://www.w3.org/2000/svg" xmlns:xlink="http://www.w3.org/1999/xlink" width="1024" zoomAndPan="magnify" viewBox="0 0 768 576" height="768" preserveAspectRatio="xMidYMid meet" version="1.0"><path fill="#ffffff" d="M 441.652344 190.765625 L 486.8125 190.765625 L 486.8125 226.773438 L 441.652344 226.773438 Z M 441.652344 190.765625 " fill-opacity="1" fill-rule="nonzero"/><path fill="#ffffff" d="M 388.136719 190.765625 L 433.300781 190.765625 L 433.300781 226.773438 L 388.136719 226.773438 Z M 388.136719 190.765625 " fill-opacity="1" fill-rule="nonzero"/><path fill="#ffffff" d="M 433.300781 235.128906 L 433.300781 248.972656 L 403.105469 235.128906 Z M 433.300781 235.128906 " fill-opacity="1" fill-rule="nonzero"/><path fill="#ffffff" d="M 441.65625 235.128906 L 486.8125 235.128906 L 486.8125 273.503906 L 441.65625 252.800781 Z M 441.65625 235.128906 " fill-opacity="1" fill-rule="nonzero"/><path fill="#ffffff" d="M 441.652344 146.402344 L 486.8125 146.402344 L 486.8125 182.410156 L 441.652344 182.410156 Z M 441.652344 146.402344 " fill-opacity="1" fill-rule="nonzero"/><path fill="#ffffff" d="M 388.136719 146.402344 L 433.300781 146.402344 L 433.300781 182.410156 L 388.136719 182.410156 Z M 388.136719 146.402344 " fill-opacity="1" fill-rule="nonzero"/><path fill="#ffffff" d="M 334.625 190.765625 L 379.785156 190.765625 L 379.785156 226.773438 L 334.625 226.773438 Z M 334.625 190.765625 " fill-opacity="1" fill-rule="nonzero"/><path fill="#ffffff" d="M 364.832031 235.128906 L 334.625 248.976562 L 334.625 235.128906 Z M 364.832031 235.128906 " fill-opacity="1" fill-rule="nonzero"/><path fill="#ffffff" d="M 281.113281 190.765625 L 326.273438 190.765625 L 326.273438 226.773438 L 281.113281 226.773438 Z M 281.113281 190.765625 " fill-opacity="1" fill-rule="nonzero"/><path fill="#ffffff" d="M 281.113281 235.128906 L 326.273438 235.128906 L 326.273438 252.804688 L 281.113281 273.503906 Z M 281.113281 235.128906 " fill-opacity="1" fill-rule="nonzero"/><path fill="#ffffff" d="M 275.644531 404.378906 C 276.054688 404.390625 276.46875 404.40625 276.878906 404.40625 C 291.988281 404.40625 306.460938 398.746094 317.628906 388.464844 C 318.847656 387.339844 320.019531 386.164062 321.140625 384.941406 C 323.472656 382.40625 326.835938 380.953125 330.367188 380.953125 C 333.886719 380.953125 337.246094 382.40625 339.578125 384.925781 C 350.960938 397.292969 367.148438 404.375 383.992188 404.375 C 399.175781 404.375 413.667969 398.730469 424.8125 388.464844 C 426.03125 387.339844 427.203125 386.164062 428.324219 384.941406 C 430.65625 382.40625 434.019531 380.953125 437.550781 380.953125 C 441.070312 380.953125 444.429688 382.40625 446.761719 384.925781 C 458.140625 397.292969 474.328125 404.375 491.175781 404.375 C 491.5625 404.375 491.941406 404.328125 492.324219 404.320312 C 509.484375 378.515625 521.003906 348.980469 525.644531 318.316406 C 527.125 308.5 521.859375 298.753906 512.828125 294.617188 L 489.335938 283.847656 C 489.28125 283.824219 489.222656 283.800781 489.167969 283.773438 L 383.960938 235.542969 L 332.09375 259.320312 C 332.082031 259.324219 332.074219 259.332031 332.0625 259.335938 L 278.585938 283.847656 C 278.570312 283.855469 278.558594 283.859375 278.546875 283.867188 L 255.09375 294.617188 C 246.066406 298.753906 240.800781 308.5 242.28125 318.316406 C 246.925781 349.003906 258.460938 378.5625 275.644531 404.378906 Z M 379.785156 252.40625 C 379.785156 250.097656 381.652344 248.230469 383.960938 248.230469 C 386.269531 248.230469 388.136719 250.097656 388.136719 252.40625 L 388.136719 372.589844 C 388.136719 374.898438 386.269531 376.765625 383.960938 376.765625 C 381.652344 376.765625 379.785156 374.898438 379.785156 372.589844 Z M 379.785156 252.40625 " fill-opacity="1" fill-rule="nonzero"/><path fill="#ffffff" d="M 384 421.074219 C 364.570312 421.074219 345.199219 413.789062 330.371094 399.40625 C 329.902344 399.863281 329.429688 400.3125 328.949219 400.75 C 297.699219 429.523438 248.875 427.5 220.117188 396.257812 C 218.554688 394.558594 218.660156 391.917969 220.359375 390.351562 C 222.058594 388.800781 224.707031 388.914062 226.261719 390.59375 C 238.683594 404.089844 255.621094 411.9375 273.941406 412.695312 C 292.292969 413.460938 309.796875 407.023438 323.285156 394.609375 C 324.675781 393.328125 326.015625 391.988281 327.296875 390.59375 C 328.871094 388.882812 331.851562 388.875 333.441406 390.59375 C 359.085938 418.453125 402.613281 420.265625 430.46875 394.609375 C 431.859375 393.328125 433.199219 391.988281 434.480469 390.59375 C 436.054688 388.882812 439.035156 388.875 440.625 390.59375 C 466.265625 418.453125 509.792969 420.265625 537.652344 394.609375 C 539.042969 393.328125 540.382812 391.988281 541.664062 390.59375 C 543.230469 388.914062 545.878906 388.800781 547.566406 390.351562 C 549.261719 391.917969 549.375 394.558594 547.8125 396.257812 C 546.378906 397.816406 544.878906 399.316406 543.316406 400.75 C 513.164062 428.53125 466.625 427.617188 437.554688 399.40625 C 437.085938 399.863281 436.613281 400.3125 436.132812 400.75 C 421.359375 414.359375 402.652344 421.074219 384 421.074219 Z M 384 421.074219 " fill-opacity="1" fill-rule="nonzero"/></svg>