<svg width="16" height="28" viewBox="0 0 16 28" fill="none" xmlns="http://www.w3.org/2000/svg">
<path d="M10.38 28V15.2297H15.1094L15.8157 10.2477H10.38V7.06306C10.38 6.26426 10.5541 5.67568 10.9021 5.2973C11.3116 4.85586 12.0486 4.63514 13.1132 4.63514H16V0.189189C15.6724 0.147147 15.1606 0.105105 14.4645 0.0630632C13.5637 0.0210212 12.6628 1.49012e-07 11.762 1.49012e-07C10.3698 1.49012e-07 9.14139 0.252252 8.07678 0.756757C7.01216 1.26126 6.1881 2.00751 5.60461 2.9955C5.02111 3.98348 4.72937 5.17117 4.72937 6.55856V10.2477H0V15.2297H4.72937V28H10.38Z" fill="#F8FAFC"/>
</svg>
