<svg width="20" height="16" viewBox="0 0 20 16" fill="none" xmlns="http://www.w3.org/2000/svg">
<path d="M1 1V0C0.734784 0 0.48043 0.105357 0.292893 0.292893C0.105357 0.48043 0 0.734784 0 1H1ZM19 1H20C20 0.734784 19.8946 0.48043 19.7071 0.292893C19.5196 0.105357 19.2652 0 19 0V1ZM1 2H19V0H1V2ZM18 1V13H20V1H18ZM17 14H3V16H17V14ZM2 13V1H0V13H2ZM3 14C2.73478 14 2.48043 13.8946 2.29289 13.7071C2.10536 13.5196 2 13.2652 2 13H0C0 13.7956 0.316071 14.5587 0.87868 15.1213C1.44129 15.6839 2.20435 16 3 16V14ZM18 13C18 13.2652 17.8946 13.5196 17.7071 13.7071C17.5196 13.8946 17.2652 14 17 14V16C17.7956 16 18.5587 15.6839 19.1213 15.1213C19.6839 14.5587 20 13.7956 20 13H18Z" fill="#64748B"/>
<path d="M1 1L10 10L19 1" stroke="#64748B" stroke-width="2" stroke-linecap="round" stroke-linejoin="round"/>
</svg>
