<svg width="24" height="22" viewBox="0 0 24 22" fill="none" xmlns="http://www.w3.org/2000/svg">
<path d="M0 2.54505C0 1.79459 0.262712 1.1828 0.788136 0.709678C1.31356 0.236559 2.01695 1.35973e-07 2.8983 1.35973e-07C3.77966 1.35973e-07 4.48305 0.240638 5.00847 0.721913C5.5339 1.20319 5.79661 1.83537 5.79661 2.61847C5.79661 3.31999 5.52542 3.91138 4.98305 4.39266C4.44068 4.87393 3.73729 5.11457 2.87288 5.11457H2.84746C1.98305 5.11457 1.29237 4.86986 0.775424 4.38042C0.258475 3.89099 0 3.2792 0 2.54505ZM0.305085 22V7.14572H5.44068V22H0.305085ZM8.28814 22H13.4492V13.7041C13.4492 13.1821 13.5085 12.7824 13.6271 12.505C13.8305 11.9993 14.161 11.571 14.6186 11.2202C15.0763 10.8695 15.6271 10.6941 16.2712 10.6941C18 10.6941 18.8644 11.8198 18.8644 14.0712V22H24V13.4839C24 11.2651 23.4619 9.59696 22.3856 8.47942C21.3093 7.36188 19.8814 6.80311 18.1017 6.80311C16.0847 6.80311 14.5339 7.61884 13.4492 9.25028V9.29922H13.4237L13.4492 9.25028V7.14572H8.28814C8.32203 7.76567 8.33898 9.24212 8.33898 11.5751C8.33898 12.8313 8.33051 15.3029 8.31356 18.99L8.28814 22Z" fill="#F8FAFC"/>
</svg>
