<svg width="24" height="24" viewBox="0 0 24 24" fill="none" xmlns="http://www.w3.org/2000/svg">
<path d="M7.26247 -3.12924e-07C5.9436 -3.12924e-07 4.72017 0.329718 3.59219 0.989154C2.49892 1.63124 1.63124 2.49892 0.989154 3.59219C0.329718 4.72017 0 5.9436 0 7.26247V16.7375C0 18.0564 0.329718 19.2798 0.989154 20.4078C1.63124 21.5011 2.49892 22.3688 3.59219 23.0108C4.72017 23.6703 5.9436 24 7.26247 24H16.7375C18.0564 24 19.2798 23.6703 20.4078 23.0108C21.5011 22.3688 22.3688 21.5011 23.0108 20.4078C23.6703 19.2798 24 18.0564 24 16.7375V7.26247C24 5.9436 23.6703 4.72017 23.0108 3.59219C22.3688 2.49892 21.5011 1.63124 20.4078 0.989154C19.2798 0.329718 18.0564 -3.12924e-07 16.7375 -3.12924e-07H7.26247ZM18.3254 4.42516C18.6725 4.42516 18.9675 4.54664 19.2104 4.78959C19.4534 5.03254 19.5748 5.32755 19.5748 5.67462C19.5748 6.02169 19.4534 6.32104 19.2104 6.57267C18.9675 6.82429 18.6725 6.95011 18.3254 6.95011C17.9783 6.95011 17.679 6.82429 17.4273 6.57267C17.1757 6.32104 17.0499 6.02169 17.0499 5.67462C17.0499 5.32755 17.1757 5.03254 17.4273 4.78959C17.679 4.54664 17.9783 4.42516 18.3254 4.42516ZM12 5.67462C13.1453 5.67462 14.2039 5.95662 15.1757 6.52061C16.1475 7.0846 16.9154 7.85249 17.4794 8.82429C18.0434 9.7961 18.3254 10.8547 18.3254 12C18.3254 13.1453 18.0434 14.1996 17.4794 15.1627C16.9154 16.1258 16.1475 16.8894 15.1757 17.4534C14.2039 18.0174 13.1453 18.2993 12 18.2993C10.8547 18.2993 9.80043 18.0174 8.83731 17.4534C7.87419 16.8894 7.11063 16.1258 6.54664 15.1627C5.98265 14.1996 5.70065 13.1453 5.70065 12C5.70065 10.8547 5.98265 9.7961 6.54664 8.82429C7.11063 7.85249 7.87419 7.0846 8.83731 6.52061C9.80043 5.95662 10.8547 5.67462 12 5.67462ZM12 7.57484C11.462 7.57484 10.898 7.68764 10.308 7.91323C9.73536 8.17354 9.2538 8.49892 8.86334 8.88937C8.47289 9.27983 8.15618 9.75271 7.91323 10.308C7.68764 10.898 7.57484 11.462 7.57484 12C7.57484 12.538 7.68764 13.102 7.91323 13.692C8.17354 14.2646 8.49458 14.7419 8.87636 15.1236C9.25813 15.5054 9.73536 15.8265 10.308 16.0868C10.898 16.3124 11.462 16.4252 12 16.4252C12.538 16.4252 13.102 16.3124 13.692 16.0868C14.2473 15.8438 14.7202 15.5271 15.1106 15.1367C15.5011 14.7462 15.8265 14.2646 16.0868 13.692C16.3124 13.102 16.4252 12.538 16.4252 12C16.4252 11.462 16.3124 10.898 16.0868 10.308C15.8612 9.75271 15.5445 9.27115 15.1367 8.86334C14.7289 8.45553 14.2473 8.13883 13.692 7.91323C13.102 7.68764 12.538 7.57484 12 7.57484Z" fill="#F8FAFC"/>
</svg>
