<svg width="58" height="58" viewBox="0 0 58 58" fill="none" xmlns="http://www.w3.org/2000/svg">
<path d="M42.3332 29.0001C42.3332 31.6372 41.5512 34.215 40.0861 36.4077C38.621 38.6003 36.5386 40.3093 34.1023 41.3185C31.6659 42.3276 28.9851 42.5917 26.3986 42.0772C23.8122 41.5627 21.4365 40.2929 19.5718 38.4282C17.7071 36.5635 16.4372 34.1877 15.9227 31.6013C15.4082 29.0149 15.6723 26.334 16.6814 23.8976C17.6906 21.4613 19.3996 19.3789 21.5922 17.9138C23.7849 16.4487 26.3628 15.6667 28.9998 15.6667" stroke="#0D5C63" stroke-width="3" stroke-linecap="round" stroke-linejoin="round"/>
<path d="M34.3333 2.86671C32.6088 2.51471 30.831 2.33693 28.9999 2.33337C14.2719 2.33337 2.33325 14.272 2.33325 29C2.33325 43.728 14.2719 55.6667 28.9999 55.6667C43.7279 55.6667 55.6666 43.728 55.6666 29C55.663 27.1689 55.4852 25.3912 55.1332 23.6667" stroke="#0D5C63" stroke-width="3" stroke-linecap="round" stroke-linejoin="round"/>
<path d="M29.0798 28.8988L41.2212 16.7574M49.6398 8.58677L48.1652 3.28543C48.1062 3.08347 47.9984 2.89916 47.8512 2.7488C47.704 2.59845 47.5221 2.48668 47.3214 2.42341C47.1208 2.36013 46.9076 2.34728 46.7008 2.38601C46.494 2.42473 46.3 2.51384 46.1358 2.64543C42.3065 5.77343 38.1358 9.98943 41.5412 16.6374C48.4052 19.8374 52.3252 15.5228 55.3278 11.8934C55.4637 11.7263 55.5557 11.5279 55.5956 11.3162C55.6355 11.1046 55.622 10.8863 55.5564 10.6812C55.4907 10.476 55.375 10.2905 55.2196 10.1413C55.0642 9.99212 54.8741 9.88402 54.6665 9.82677L49.6398 8.58677Z" stroke="#0D5C63" stroke-width="3" stroke-linecap="round" stroke-linejoin="round"/>
</svg>
