<?xml version="1.0" encoding="UTF-8"?>
<svg xmlns="http://www.w3.org/2000/svg" xmlns:xlink="http://www.w3.org/1999/xlink" width="1024px" height="768px" viewBox="0 0 1024 768" version="1.1">
<defs>
<clipPath id="clip1">
  <path d="M 275.359375 318 L 414 318 L 414 457 L 275.359375 457 Z M 275.359375 318 "/>
</clipPath>
<clipPath id="clip2">
  <path d="M 611 314.667969 L 748.359375 314.667969 L 748.359375 453 L 611 453 Z M 611 314.667969 "/>
</clipPath>
<clipPath id="clip3">
  <path d="M 366.667969 477.332031 L 658 477.332031 L 658 558.652344 L 366.667969 558.652344 Z M 366.667969 477.332031 "/>
</clipPath>
<clipPath id="clip4">
  <path d="M 349 175.652344 L 614.667969 175.652344 L 614.667969 299 L 349 299 Z M 349 175.652344 "/>
</clipPath>
</defs>
<g id="surface1">
<g clip-path="url(#clip1)" clip-rule="nonzero">
<path style=" stroke:none;fill-rule:nonzero;fill:rgb(100%,100%,100%);fill-opacity:1;" d="M 388.5625 438.136719 C 389.988281 438.652344 391.59375 438.207031 392.550781 437.03125 L 402.769531 424.542969 C 403.730469 423.363281 403.847656 421.714844 403.066406 420.40625 L 395.347656 407.625 L 398.105469 398.519531 L 411.59375 392.144531 C 412.964844 391.496094 413.785156 390.050781 413.640625 388.535156 L 412.035156 372.484375 C 411.886719 370.96875 410.796875 369.71875 409.324219 369.347656 L 394.832031 365.769531 L 390.34375 357.390625 L 395.378906 343.34375 C 395.894531 341.910156 395.453125 340.308594 394.277344 339.347656 L 381.785156 329.128906 C 380.609375 328.171875 378.957031 328.058594 377.644531 328.832031 L 364.863281 336.550781 L 355.765625 333.796875 L 349.390625 320.308594 C 348.738281 318.9375 347.296875 318.113281 345.78125 318.261719 L 329.730469 319.863281 C 328.214844 320.015625 326.957031 321.105469 326.59375 322.578125 L 323.011719 337.066406 L 314.636719 341.558594 L 300.582031 336.519531 C 299.15625 336.003906 297.550781 336.449219 296.59375 337.625 L 286.375 350.097656 C 285.417969 351.28125 285.296875 352.925781 286.078125 354.238281 L 293.796875 367.019531 L 291.042969 376.125 L 277.550781 382.5 C 276.183594 383.144531 275.359375 384.589844 275.503906 386.109375 L 277.109375 402.160156 C 277.253906 403.675781 278.347656 404.925781 279.816406 405.296875 L 294.3125 408.875 L 298.800781 417.253906 L 293.765625 431.300781 C 293.25 432.730469 293.691406 434.339844 294.871094 435.292969 L 307.359375 445.515625 C 308.535156 446.46875 310.1875 446.589844 311.496094 445.808594 L 324.28125 438.09375 L 333.378906 440.84375 L 339.753906 454.332031 C 340.199219 455.277344 341.011719 455.953125 341.964844 456.234375 C 342.40625 456.371094 342.878906 456.410156 343.363281 456.371094 L 359.417969 454.761719 C 360.933594 454.613281 362.1875 453.527344 362.550781 452.050781 L 366.128906 437.5625 L 374.511719 433.066406 Z M 368.167969 388.625 C 367.457031 401.644531 356.339844 411.628906 343.324219 410.921875 C 330.300781 410.214844 320.316406 399.09375 321.027344 386.078125 C 321.730469 373.058594 332.847656 363.074219 345.871094 363.78125 C 358.886719 364.488281 368.855469 375.609375 368.167969 388.625 Z M 368.167969 388.625 "/>
</g>
<g clip-path="url(#clip2)" clip-rule="nonzero">
<path style=" stroke:none;fill-rule:nonzero;fill:rgb(100%,100%,100%);fill-opacity:1;" d="M 746.296875 373.765625 L 732.363281 368.40625 L 728.949219 359.527344 L 735.691406 346.214844 C 736.386719 344.859375 736.136719 343.222656 735.089844 342.121094 L 723.984375 330.425781 C 722.941406 329.324219 721.308594 329 719.921875 329.613281 L 706.285156 335.667969 L 697.597656 331.8125 L 692.957031 317.628906 C 692.484375 316.1875 691.160156 315.199219 689.628906 315.15625 L 673.503906 314.746094 C 671.988281 314.699219 670.605469 315.625 670.058594 317.042969 L 664.699219 330.96875 L 655.816406 334.386719 L 642.503906 327.640625 C 641.152344 326.953125 639.515625 327.203125 638.410156 328.246094 L 626.71875 339.347656 C 625.613281 340.394531 625.292969 342.03125 625.90625 343.417969 L 631.957031 357.050781 L 628.105469 365.738281 L 613.921875 370.378906 C 612.480469 370.847656 611.488281 372.175781 611.449219 373.707031 L 611.035156 389.832031 C 610.988281 391.347656 611.917969 392.734375 613.332031 393.28125 L 627.261719 398.640625 L 630.675781 407.519531 L 623.933594 420.832031 C 623.246094 422.1875 623.496094 423.824219 624.535156 424.925781 L 635.640625 436.621094 C 636.6875 437.722656 638.324219 438.046875 639.707031 437.425781 L 653.34375 431.375 L 662.03125 435.234375 L 666.671875 449.417969 C 666.996094 450.402344 667.71875 451.183594 668.628906 451.582031 C 669.058594 451.769531 669.515625 451.875 670 451.890625 L 686.125 452.300781 C 687.640625 452.347656 689.027344 451.417969 689.574219 450.003906 L 694.933594 436.074219 L 703.8125 432.65625 L 717.125 439.402344 C 718.480469 440.09375 720.113281 439.84375 721.21875 438.796875 L 732.910156 427.691406 C 734.015625 426.652344 734.339844 425.015625 733.71875 423.628906 L 727.667969 409.996094 L 731.527344 401.300781 L 745.707031 396.667969 C 747.152344 396.191406 748.140625 394.871094 748.183594 393.339844 L 748.59375 377.214844 C 748.640625 375.699219 747.714844 374.3125 746.296875 373.765625 Z M 703.046875 387.730469 C 700.71875 400.550781 688.4375 409.066406 675.609375 406.738281 C 662.78125 404.410156 654.269531 392.128906 656.597656 379.300781 C 658.925781 366.480469 671.207031 357.964844 684.03125 360.292969 C 696.859375 362.605469 705.375 374.902344 703.046875 387.730469 Z M 703.046875 387.730469 "/>
</g>
<path style=" stroke:none;fill-rule:nonzero;fill:rgb(100%,100%,100%);fill-opacity:1;" d="M 621.433594 357.496094 C 623.285156 355.828125 623.875 353.160156 622.933594 350.863281 L 612.816406 326.4375 C 611.859375 324.136719 609.5625 322.683594 607.074219 322.8125 L 582.625 324.0625 L 571.597656 313.035156 L 572.847656 288.589844 C 572.980469 286.097656 571.519531 283.800781 569.222656 282.84375 L 544.796875 272.730469 C 542.496094 271.769531 539.832031 272.375 538.167969 274.230469 L 521.761719 292.402344 L 506.167969 292.402344 L 489.761719 274.230469 C 488.097656 272.375 485.433594 271.785156 483.136719 272.730469 L 458.703125 282.84375 C 456.40625 283.800781 454.949219 286.097656 455.078125 288.589844 L 456.332031 313.035156 L 445.300781 324.0625 L 420.855469 322.8125 C 418.363281 322.683594 416.066406 324.136719 415.113281 326.4375 L 404.996094 350.863281 C 404.035156 353.160156 404.640625 355.828125 406.5 357.496094 L 424.671875 373.902344 L 424.671875 389.511719 L 406.5 405.917969 C 404.640625 407.578125 404.050781 410.246094 404.996094 412.542969 L 415.113281 436.972656 C 416.066406 439.269531 418.363281 440.730469 420.855469 440.59375 L 445.300781 439.34375 L 456.332031 450.375 L 455.078125 474.816406 C 454.949219 477.308594 456.40625 479.605469 458.703125 480.5625 L 483.136719 490.683594 C 485.433594 491.636719 488.097656 491.03125 489.761719 489.175781 L 506.167969 471.003906 L 521.761719 471.003906 L 538.167969 489.175781 C 539.300781 490.441406 540.90625 491.121094 542.542969 491.121094 C 543.292969 491.121094 544.058594 490.972656 544.796875 490.683594 L 569.222656 480.5625 C 571.519531 479.605469 572.980469 477.308594 572.847656 474.816406 L 571.597656 450.375 L 582.625 439.34375 L 607.074219 440.59375 C 609.5625 440.730469 611.859375 439.269531 612.816406 436.972656 L 622.933594 412.542969 C 623.890625 410.246094 623.285156 407.578125 621.433594 405.917969 L 603.269531 389.511719 L 603.269531 373.902344 Z M 513.941406 445.277344 C 478.832031 445.277344 450.371094 416.8125 450.371094 381.703125 C 450.371094 346.59375 478.832031 318.128906 513.941406 318.128906 C 549.050781 318.128906 577.515625 346.59375 577.515625 381.703125 C 577.515625 416.8125 549.050781 445.277344 513.941406 445.277344 Z M 513.941406 445.277344 "/>
<path style=" stroke:none;fill-rule:nonzero;fill:rgb(100%,100%,100%);fill-opacity:1;" d="M 524.972656 374.417969 C 531.011719 370.628906 535.03125 363.925781 535.03125 356.269531 C 535.03125 344.457031 525.457031 334.890625 513.644531 334.890625 C 501.839844 334.890625 492.265625 344.457031 492.265625 356.269531 C 492.265625 363.917969 496.285156 370.628906 502.324219 374.417969 C 486.503906 379.261719 475.003906 393.96875 475.003906 411.378906 C 475.003906 413.878906 476.769531 415.972656 479.128906 416.472656 C 482.574219 419.996094 496.738281 422.613281 513.691406 422.613281 C 530.671875 422.613281 544.855469 419.980469 548.269531 416.457031 C 550.582031 415.925781 552.316406 413.855469 552.316406 411.378906 C 552.308594 393.96875 540.800781 379.261719 524.972656 374.417969 Z M 524.972656 374.417969 "/>
<path style=" stroke:none;fill-rule:nonzero;fill:rgb(100%,100%,100%);fill-opacity:1;" d="M 631.578125 301.636719 L 631.578125 273.746094 C 631.578125 271.121094 629.457031 269.015625 626.847656 269.015625 L 611.078125 269.015625 C 608.457031 269.015625 606.347656 271.136719 606.347656 273.746094 L 606.347656 301.636719 C 606.347656 304.253906 608.472656 306.363281 611.078125 306.363281 L 626.847656 306.363281 C 629.457031 306.378906 631.578125 304.253906 631.578125 301.636719 Z M 631.578125 301.636719 "/>
<path style=" stroke:none;fill-rule:nonzero;fill:rgb(100%,100%,100%);fill-opacity:1;" d="M 646.832031 254.292969 C 644.214844 254.292969 642.109375 256.410156 642.109375 259.015625 L 642.109375 301.636719 C 642.109375 304.253906 644.230469 306.363281 646.832031 306.363281 L 662.605469 306.363281 C 665.230469 306.363281 667.332031 304.246094 667.332031 301.636719 L 667.332031 259.015625 C 667.332031 256.394531 665.214844 254.292969 662.605469 254.292969 Z M 646.832031 254.292969 "/>
<path style=" stroke:none;fill-rule:nonzero;fill:rgb(100%,100%,100%);fill-opacity:1;" d="M 677.863281 231.671875 L 677.863281 301.636719 C 677.863281 304.253906 679.984375 306.363281 682.589844 306.363281 L 698.363281 306.363281 C 700.984375 306.363281 703.089844 304.246094 703.089844 301.636719 L 703.089844 231.671875 C 703.089844 229.046875 700.96875 226.941406 698.363281 226.941406 L 682.605469 226.941406 C 679.984375 226.941406 677.863281 229.0625 677.863281 231.671875 Z M 677.863281 231.671875 "/>
<path style=" stroke:none;fill-rule:nonzero;fill:rgb(100%,100%,100%);fill-opacity:1;" d="M 617.855469 246.855469 C 618.339844 246.871094 618.839844 246.855469 619.324219 246.855469 L 620.8125 246.855469 C 621.3125 246.839844 621.796875 246.824219 622.300781 246.792969 C 622.800781 246.765625 623.300781 246.765625 623.785156 246.71875 L 625.277344 246.605469 C 625.777344 246.558594 626.277344 246.53125 626.761719 246.46875 L 628.25 246.292969 C 628.5 246.265625 628.75 246.234375 629 246.203125 L 629.738281 246.089844 C 633.714844 245.5 637.660156 244.558594 641.546875 243.277344 C 645.421875 241.996094 649.203125 240.34375 652.859375 238.402344 C 660.175781 234.5 666.890625 229.238281 672.636719 222.90625 C 677.453125 217.578125 681.546875 211.480469 684.722656 204.839844 L 690.734375 206.578125 C 692.265625 207.015625 693.636719 205.484375 693.015625 204.015625 L 684.167969 182.777344 C 683.691406 181.65625 682.3125 181.261719 681.324219 181.953125 L 662.488281 195.160156 C 661.175781 196.078125 661.515625 198.09375 663.046875 198.550781 L 668.496094 200.125 C 667.042969 205.234375 664.90625 210.214844 662.078125 214.878906 C 658.421875 220.890625 653.683594 226.410156 648.011719 230.996094 C 645.1875 233.292969 642.136719 235.363281 638.894531 237.175781 C 635.65625 238.972656 632.238281 240.519531 628.691406 241.769531 L 628.03125 242.011719 C 627.808594 242.082031 627.589844 242.15625 627.347656 242.230469 L 625.996094 242.65625 C 625.542969 242.800781 625.082031 242.921875 624.625 243.050781 L 623.253906 243.4375 C 622.800781 243.550781 622.328125 243.65625 621.875 243.761719 C 621.417969 243.863281 620.949219 243.980469 620.472656 244.082031 L 619.074219 244.363281 C 618.605469 244.453125 618.128906 244.558594 617.660156 244.628906 L 606.144531 246.621094 Z M 617.855469 246.855469 "/>
<g clip-path="url(#clip3)" clip-rule="nonzero">
<path style=" stroke:none;fill-rule:nonzero;fill:rgb(100%,100%,100%);fill-opacity:1;" d="M 655.125 482.609375 C 652.296875 480.28125 648.128906 480.667969 645.785156 483.496094 C 613.082031 523.046875 564.910156 545.730469 513.644531 545.730469 C 478.464844 545.730469 444.667969 535.15625 415.90625 515.140625 C 415.316406 514.730469 414.6875 514.433594 414.035156 514.246094 L 426.878906 501.402344 C 428.308594 499.972656 428.863281 497.894531 428.355469 495.953125 C 427.839844 494.011719 426.316406 492.480469 424.375 491.933594 L 374.027344 478 C 372.050781 477.453125 369.949219 478.015625 368.503906 479.457031 C 367.058594 480.902344 366.5 483.003906 367.046875 484.980469 L 380.972656 535.332031 C 381.519531 537.277344 383.035156 538.792969 384.996094 539.308594 C 385.46875 539.4375 385.953125 539.5 386.4375 539.5 C 387.925781 539.5 389.371094 538.910156 390.449219 537.832031 L 405.761719 522.519531 C 406.171875 523.902344 407.042969 525.15625 408.324219 526.035156 C 439.324219 547.597656 475.738281 558.996094 513.636719 558.996094 C 527.699219 558.996094 541.703125 557.40625 555.28125 554.285156 C 568.488281 551.234375 581.375 546.714844 593.597656 540.839844 C 605.597656 535.066406 617.015625 527.953125 627.515625 519.707031 C 637.953125 511.515625 647.527344 502.183594 655.980469 491.964844 C 658.332031 489.121094 657.9375 484.953125 655.125 482.609375 Z M 389.328125 522.917969 L 380.652344 491.59375 L 411.972656 500.265625 Z M 389.328125 522.917969 "/>
</g>
<g clip-path="url(#clip4)" clip-rule="nonzero">
<path style=" stroke:none;fill-rule:nonzero;fill:rgb(100%,100%,100%);fill-opacity:1;" d="M 352.566406 298.160156 C 353.542969 298.675781 354.589844 298.910156 355.621094 298.910156 C 358.003906 298.910156 360.316406 297.613281 361.511719 295.347656 C 391.167969 238.355469 449.453125 202.953125 513.644531 202.953125 C 529.625 202.953125 545.410156 205.144531 560.609375 209.464844 L 552.378906 224 C 551.375 225.75 551.390625 227.902344 552.40625 229.652344 C 553.421875 231.390625 555.296875 232.464844 557.3125 232.464844 L 608.8125 232.464844 C 610.828125 232.464844 612.699219 231.390625 613.714844 229.652344 C 614.730469 227.917969 614.746094 225.765625 613.746094 224 L 588 178.535156 C 587 176.753906 585.113281 175.667969 583.066406 175.667969 C 581.019531 175.667969 579.136719 176.769531 578.136719 178.535156 L 567.328125 197.621094 C 549.996094 192.363281 531.9375 189.699219 513.644531 189.699219 C 496.199219 189.699219 478.90625 192.128906 462.296875 196.933594 C 446.199219 201.582031 430.78125 208.433594 416.496094 217.28125 C 388.175781 234.839844 365.097656 259.707031 349.738281 289.21875 C 348.0625 292.464844 349.328125 296.46875 352.566406 298.160156 Z M 583.066406 192.839844 L 599.089844 221.125 L 567.046875 221.125 Z M 583.066406 192.839844 "/>
</g>
</g>
</svg>
