<svg width="19" height="19" viewBox="0 0 19 19" fill="none" xmlns="http://www.w3.org/2000/svg">
<path d="M5.45643 8.42634L10.5733 13.5433C11.1754 14.1453 12.1716 14.1254 12.7978 13.4985L13.4198 12.8765C14.1107 12.1856 15.2085 12.1639 15.8722 12.827L18.5119 15.4667C19.1648 16.1196 19.1672 17.2064 18.492 17.8895C18.4878 17.8937 18.4835 17.898 18.4793 17.9022C17.8887 18.4928 17.1029 18.8379 16.1853 18.954C13.2457 19.3294 8.92372 17.3914 5.26663 13.7343C1.60833 10.076 -0.328416 5.75514 0.0457556 2.81433C0.16242 1.89734 0.507577 1.11151 1.09815 0.520933C1.10238 0.516702 1.10661 0.512469 1.11084 0.508238C1.7939 -0.167573 2.88076 -0.16455 3.53359 0.488291L6.17274 3.12746C6.83646 3.79118 6.81409 4.88892 6.12317 5.57984L5.50116 6.20185C4.87432 6.8287 4.85437 7.82488 5.45643 8.42634Z" fill="#0F172A"/>
</svg>
