<svg width="121" height="121" viewBox="0 0 121 121" fill="none" xmlns="http://www.w3.org/2000/svg">
<path d="M29.5 91.834H12.5V108.834" stroke="#00ADAD" stroke-width="6.392" stroke-linecap="round" stroke-linejoin="round"/>
<path d="M108.832 108.834H91.832V91.834" stroke="#00ADAD" stroke-width="6.392" stroke-linecap="round" stroke-linejoin="round"/>
<path d="M91.832 29.5H108.832V12.5" stroke="#00ADAD" stroke-width="6.392" stroke-linecap="round" stroke-linejoin="round"/>
<path d="M12.5 12.5H29.5V29.5" stroke="#00ADAD" stroke-width="6.392" stroke-linecap="round" stroke-linejoin="round"/>
<path d="M29.5 13.333C14.137 23.4691 4 40.8839 4 60.6665C4 63.5554 4.21618 66.3938 4.63325 69.1665" stroke="#00ADAD" stroke-width="6.392" stroke-linecap="round" stroke-linejoin="round"/>
<path d="M69.1656 116.701C66.3929 117.118 63.5544 117.334 60.6656 117.334C40.8829 117.334 23.4681 107.197 13.332 91.834" stroke="#00ADAD" stroke-width="6.392" stroke-linecap="round" stroke-linejoin="round"/>
<path d="M116.699 52.167C117.116 54.9397 117.332 57.7781 117.332 60.667C117.332 80.4496 107.195 97.8644 91.832 108.001" stroke="#00ADAD" stroke-width="6.392" stroke-linecap="round" stroke-linejoin="round"/>
<path d="M52.166 4.63325C54.9387 4.21618 57.7771 4 60.666 4C80.4486 4 97.8634 14.137 108 29.5" stroke="#00ADAD" stroke-width="6.392" stroke-linecap="round" stroke-linejoin="round"/>
</svg>
