<svg width="64" height="64" viewBox="0 0 64 64" fill="none" xmlns="http://www.w3.org/2000/svg">
<path d="M32.0008 4.57129C47.1494 4.57129 59.4294 16.8513 59.4294 31.9999C59.4294 47.1484 47.1494 59.4284 32.0008 59.4284C16.8523 59.4284 4.57227 47.1484 4.57227 31.9999C4.57227 16.8513 16.8523 4.57129 32.0008 4.57129ZM32.0008 9.14272C19.3768 9.14272 9.14369 19.3759 9.14369 31.9999C9.14369 44.6239 19.3768 54.857 32.0008 54.857C44.6248 54.857 54.858 44.6239 54.858 31.9999C54.858 19.3759 44.6248 9.14272 32.0008 9.14272ZM32.6557 16.3267V19.3976C37.1997 19.7621 40.49 22.4879 40.6351 26.6136H36.8546C36.618 24.3233 34.9826 22.9964 32.6557 22.7061V30.2856L33.5288 30.5027C38.3094 31.6124 40.9266 33.5759 40.9266 37.4467C40.9266 41.9004 37.2911 44.4261 32.6557 44.7541V47.8067H30.602V44.7541C25.9848 44.4079 22.3323 41.809 22.2054 37.4467H25.9677C26.2946 39.5736 27.6763 41.137 30.602 41.4467V33.5199L29.8568 33.337C25.2397 32.2661 22.7506 30.1941 22.7506 26.5039C22.7506 22.4319 26.0214 19.7427 30.602 19.3964V16.3256L32.6557 16.3267ZM32.6557 33.993V41.4639C35.7643 41.2273 37.0728 39.7553 37.0728 37.8101C37.0728 35.9381 36.0557 34.8296 32.6557 33.993ZM30.602 22.7061C27.9848 23.033 26.6031 24.5416 26.6031 26.1964C26.6031 27.8513 27.6946 29.0673 30.6031 29.7953L30.602 22.7061Z" fill="white"/>
</svg>
