<?xml version="1.0" encoding="UTF-8"?>
<svg xmlns="http://www.w3.org/2000/svg" xmlns:xlink="http://www.w3.org/1999/xlink" width="1800px" height="1350px" viewBox="0 0 1800 1350" version="1.1">
<defs>
<clipPath id="clip1">
  <path d="M 580.546875 355.546875 L 1218.632812 355.546875 L 1218.632812 993.632812 L 580.546875 993.632812 Z M 580.546875 355.546875 "/>
</clipPath>
</defs>
<g id="surface1">
<path style=" stroke:none;fill-rule:evenodd;fill:rgb(100%,100%,100%);fill-opacity:1;" d="M 665.800781 562.234375 C 663.941406 562.1875 662.273438 563.304688 661.515625 565 C 636.445312 619.132812 630.570312 680.238281 644.832031 738.144531 C 645.347656 740.707031 647.9375 742.320312 650.445312 741.6875 C 653.007812 741.035156 654.539062 738.445312 653.816406 735.929688 C 640.0625 680.027344 645.730469 621.085938 669.890625 568.871094 C 671.382812 565.804688 669.167969 562.269531 665.800781 562.234375 Z M 665.800781 562.234375 "/>
<path style=" stroke:none;fill-rule:evenodd;fill:rgb(100%,100%,100%);fill-opacity:1;" d="M 1045.808594 664.746094 C 1048.570312 664.65625 1050.15625 666.320312 1051.136719 671.980469 C 1063.640625 745.175781 1033.90625 792.070312 990.152344 797.671875 C 987.25 798.054688 984.832031 798.054688 982.828125 797.71875 C 980.867188 802.265625 979.039062 806.699219 977.472656 811.085938 C 975.550781 816.3125 967.382812 812.613281 969.34375 807.246094 C 972.539062 798.695312 976.191406 790.019531 982.828125 775.414062 C 989.417969 760.839844 1003.125 739.726562 1015.546875 721.976562 C 1018.058594 718.40625 1014.835938 715.804688 1013.03125 717.929688 C 998.136719 735.882812 982.351562 758.613281 971.082031 781.59375 C 965.496094 793.003906 963.582031 788.488281 960.617188 780.277344 C 944.605469 735.808594 971.292969 686.28125 1039.296875 666.230469 C 1042.027344 665.46875 1044.105469 664.78125 1045.808594 664.746094 Z M 829.039062 575.554688 C 826.75 575.425781 825.046875 576.023438 822.703125 578.402344 C 800.609375 595 784.660156 619.300781 778.867188 647.425781 C 780.183594 649.851562 782.273438 651.808594 785.46875 652.488281 C 798.195312 655.261719 794.660156 665.597656 805.296875 664.699219 C 810.113281 664.40625 793.9375 686.152344 805.683594 695.261719 C 819.515625 706.019531 817.558594 712.582031 818.453125 716.070312 C 819.992188 721.691406 812.757812 732.027344 817.179688 738.199219 C 830.796875 750.328125 832.535156 743.058594 834.457031 728.878906 C 835.050781 724.410156 841.398438 719.953125 842.835938 714.109375 C 845.179688 704.625 851.945312 710.457031 852.921875 701.09375 C 853.902344 691.78125 864.714844 690.152344 855.085938 680.503906 C 844.070312 669.488281 830.839844 654.035156 814.070312 657.011719 C 807.46875 658.164062 807.265625 664.03125 803.742188 655.601562 C 800.242188 647.269531 795.777344 647.269531 791.738281 648.25 C 787.609375 649.21875 788.964844 636.757812 793.816406 636 C 794.84375 635.824219 799.015625 640.886719 801.066406 638.800781 C 803.789062 636.117188 802.890625 633.34375 803.355469 631.742188 C 806.25 621.222656 815.222656 631.019531 828.039062 612.679688 C 837.835938 598.679688 841.828125 610.382812 842.460938 601.179688 C 843.007812 592.675781 832.207031 589.390625 826.710938 593.179688 C 822.410156 596.199219 815.214844 602.425781 813.089844 595.988281 C 810.964844 589.527344 822.023438 583.519531 827.269531 583.742188 C 832.5 583.90625 840.882812 587.988281 842.835938 584.675781 C 844.746094 581.40625 840.417969 577.558594 831.554688 575.914062 C 830.613281 575.71875 829.796875 575.601562 829.039062 575.554688 Z M 869.128906 559.808594 C 866.363281 559.898438 863.890625 560.15625 862.28125 560.496094 C 856.007812 561.859375 841.890625 567.132812 849.71875 571.855469 C 857.59375 576.570312 851.457031 579.179688 850.746094 582.484375 C 850.066406 585.808594 853.636719 591.804688 856.007812 593.308594 C 860.484375 596.238281 860.394531 592.0625 862.28125 587.722656 C 863.847656 584.199219 871.71875 581.296875 879.082031 580.023438 C 886.394531 578.824219 883.757812 573.210938 886.898438 565.898438 C 888.738281 560.960938 877.503906 559.597656 869.128906 559.808594 Z M 892.234375 537.074219 C 961.550781 537.074219 1018.617188 589.683594 1025.730469 657.082031 C 1009.726562 662.742188 995.800781 670.09375 984.238281 678.828125 C 984.238281 673.890625 978.746094 668.820312 985.976562 664.828125 C 994.703125 660.066406 992.90625 653 985.164062 649.628906 C 977.417969 646.269531 976.144531 626.277344 990.058594 641.007812 C 997.511719 648.871094 1002.402344 648.53125 1005.378906 646.527344 C 996.230469 603.726562 963.941406 567.542969 921.257812 558.867188 C 916.277344 557.859375 911.214844 563.304688 910.484375 568.242188 C 909.511719 574.246094 913.625 579.261719 918.449219 578.960938 C 924.785156 578.496094 932.363281 574.539062 929.589844 582.066406 C 926.777344 589.644531 899.339844 592.878906 893.34375 603.9375 C 888.921875 612.324219 895.722656 617.257812 902.398438 614.785156 C 911.644531 611.425781 920.40625 608.238281 931.84375 612.441406 C 941.683594 615.472656 936.152344 627.886719 922.019531 623.847656 C 902.058594 618.15625 876.359375 636.914062 880.226562 664.828125 C 882.441406 680.785156 897.417969 690.058594 913.59375 688.777344 C 931.59375 687.378906 928.820312 703.171875 926.824219 715.347656 C 925.589844 722.871094 923.886719 730.910156 924.023438 738.492188 C 924.445312 764.363281 919.289062 771.003906 937.125 767.175781 C 939.375 766.707031 941.59375 765.8125 943.761719 764.621094 C 944.523438 771.386719 946.050781 778.105469 948.441406 784.707031 C 949.199219 786.832031 949.921875 788.882812 951.078125 791.21875 C 951.167969 791.425781 951.289062 791.648438 951.371094 791.8125 C 933.554688 800.628906 913.46875 805.5625 892.226562 805.5625 C 818.097656 805.5625 758.011719 745.421875 758.011719 671.308594 C 758.019531 597.207031 818.152344 537.074219 892.234375 537.074219 Z M 899.890625 479.589844 C 847.96875 479.589844 798.195312 500.234375 761.460938 536.910156 C 724.742188 573.640625 704.140625 623.417969 704.140625 675.382812 C 704.140625 783.460938 791.757812 871.132812 899.890625 871.132812 C 1008.023438 871.132812 1095.628906 783.472656 1095.628906 675.382812 C 1095.628906 567.261719 1008.023438 479.589844 899.890625 479.589844 Z M 899.890625 479.589844 "/>
<g clip-path="url(#clip1)" clip-rule="nonzero">
<path style=" stroke:none;fill-rule:evenodd;fill:rgb(100%,100%,100%);fill-opacity:1;" d="M 899.890625 371.253906 C 1067.972656 371.253906 1204.066406 507.246094 1204.066406 675.339844 C 1204.066406 843.382812 1067.972656 979.46875 899.890625 979.46875 C 731.84375 979.46875 595.761719 843.382812 595.761719 675.339844 C 595.761719 507.257812 731.84375 371.253906 899.890625 371.253906 Z M 899.890625 355.8125 C 723.503906 355.8125 580.316406 498.925781 580.316406 675.339844 C 580.316406 851.722656 723.496094 994.921875 899.890625 994.921875 C 1076.3125 994.921875 1219.511719 851.722656 1219.511719 675.339844 C 1219.511719 498.925781 1076.3125 355.8125 899.890625 355.8125 Z M 899.890625 355.8125 "/>
</g>
<path style=" stroke:none;fill-rule:nonzero;fill:rgb(100%,100%,100%);fill-opacity:1;" d="M 711.464844 537.816406 C 710.777344 533.863281 708.445312 530.667969 704.359375 528.242188 C 700.570312 525.941406 696.910156 525.558594 693.339844 527.003906 C 689.886719 528.367188 686.664062 530.273438 683.679688 532.828125 C 681.554688 534.566406 679.457031 536.070312 677.378906 537.25 C 676.355469 537.808594 675.457031 538.136719 674.734375 538.191406 C 674.011719 538.230469 673.371094 538.054688 672.820312 537.726562 C 672.097656 537.296875 671.585938 536.78125 671.28125 536.1875 C 670.945312 535.554688 670.816406 534.914062 670.863281 534.285156 C 670.863281 533.558594 670.988281 532.882812 671.238281 532.195312 C 671.464844 531.472656 671.757812 530.832031 672.132812 530.238281 C 673.242188 528.367188 674.605469 527.207031 676.21875 526.832031 C 677.847656 526.363281 679.625 526.273438 681.636719 526.582031 L 684.054688 516.789062 C 681.664062 516.484375 679.539062 516.449219 677.710938 516.742188 C 675.878906 517.007812 674.183594 517.546875 672.609375 518.40625 C 669.414062 520.019531 666.859375 522.492188 664.863281 525.804688 C 662.519531 529.722656 661.632812 533.640625 662.21875 537.542969 C 662.8125 541.460938 664.78125 544.398438 668.097656 546.394531 C 671.464844 548.4375 674.789062 548.90625 678.058594 547.804688 C 681.089844 546.699219 684.695312 544.527344 688.945312 541.160156 C 691.132812 539.464844 693.164062 538.101562 695.160156 537.167969 C 696.953125 536.316406 698.519531 536.316406 699.929688 537.128906 C 700.863281 537.679688 701.550781 538.367188 701.980469 539.042969 C 702.363281 539.777344 702.566406 540.546875 702.566406 541.34375 C 702.566406 542.101562 702.449219 542.917969 702.144531 543.730469 C 701.84375 544.574219 701.457031 545.390625 701 546.148438 C 700.3125 547.300781 699.554688 548.199219 698.703125 548.914062 C 697.851562 549.601562 696.964844 550.066406 695.984375 550.414062 C 695.039062 550.746094 693.980469 550.964844 692.917969 551.011719 C 691.761719 551.046875 690.574219 550.964844 689.347656 550.835938 L 688.101562 560.238281 C 690.664062 560.59375 692.917969 560.632812 694.867188 560.285156 C 696.828125 559.898438 698.65625 559.230469 700.398438 558.160156 C 703.730469 556.285156 706.320312 553.820312 708.140625 550.746094 C 710.953125 546.066406 712.070312 541.71875 711.464844 537.816406 Z M 711.464844 537.816406 "/>
<path style=" stroke:none;fill-rule:nonzero;fill:rgb(100%,100%,100%);fill-opacity:1;" d="M 739.765625 502.40625 C 739.507812 497.800781 737.074219 493.421875 732.523438 489.257812 L 710.230469 468.925781 L 703.207031 476.578125 L 725.417969 496.875 C 728.191406 499.394531 729.722656 501.644531 729.96875 503.59375 C 730.140625 504.539062 729.96875 505.554688 729.546875 506.625 C 729.117188 507.640625 728.355469 508.796875 727.25 510.023438 C 725.160156 512.285156 723.121094 513.355469 721.160156 513.171875 C 719.210938 513.042969 716.820312 511.726562 714.011719 509.179688 L 691.890625 489 L 684.90625 496.710938 L 707.539062 517.355469 C 711.976562 521.402344 716.492188 523.316406 721.078125 523.050781 C 725.683594 522.757812 729.96875 520.414062 733.960938 515.992188 C 738.0625 511.515625 739.976562 507 739.765625 502.40625 Z M 739.765625 502.40625 "/>
<path style=" stroke:none;fill-rule:nonzero;fill:rgb(100%,100%,100%);fill-opacity:1;" d="M 774.199219 476.542969 C 775.132812 472.613281 774.199219 468.75 771.386719 464.914062 C 768.796875 461.34375 765.554688 459.550781 761.683594 459.511719 C 757.972656 459.4375 754.285156 459.933594 750.53125 461.132812 C 747.894531 461.949219 745.375 462.453125 742.996094 462.742188 C 741.851562 462.871094 740.910156 462.835938 740.1875 462.625 C 739.507812 462.359375 738.984375 461.9375 738.609375 461.425781 C 738.097656 460.75 737.851562 460.109375 737.804688 459.429688 C 737.757812 458.699219 737.84375 458.066406 738.132812 457.46875 C 738.4375 456.820312 738.820312 456.234375 739.289062 455.730469 C 739.792969 455.171875 740.304688 454.660156 740.863281 454.230469 C 742.648438 452.957031 744.351562 452.445312 745.960938 452.691406 C 747.628906 452.867188 749.324219 453.515625 751.070312 454.570312 L 757.058594 446.484375 C 754.980469 445.304688 753.066406 444.453125 751.234375 443.976562 C 749.449219 443.507812 747.664062 443.335938 745.917969 443.507812 C 742.347656 443.8125 738.976562 445.082031 735.917969 447.335938 C 732.210938 450.054688 729.867188 453.339844 728.886719 457.179688 C 727.953125 460.996094 728.59375 464.484375 730.894531 467.632812 C 733.238281 470.792969 736.085938 472.496094 739.488281 472.742188 C 742.722656 472.90625 746.941406 472.3125 752.125 470.863281 C 754.769531 470.105469 757.195312 469.683594 759.402344 469.59375 C 761.371094 469.5 762.863281 470.105469 763.796875 471.378906 C 764.417969 472.273438 764.804688 473.125 764.941406 473.96875 C 765.023438 474.746094 764.941406 475.550781 764.640625 476.3125 C 764.335938 477 763.871094 477.675781 763.273438 478.316406 C 762.679688 478.996094 761.992188 479.589844 761.28125 480.148438 C 760.207031 480.90625 759.15625 481.464844 758.128906 481.804688 C 757.058594 482.070312 756.050781 482.191406 755.027344 482.109375 C 754.011719 482.070312 752.976562 481.804688 751.960938 481.464844 C 750.898438 481.035156 749.835938 480.523438 748.726562 479.929688 L 743.957031 488.09375 C 746.171875 489.414062 748.214844 490.3125 750.175781 490.742188 C 752.125 491.171875 754.082031 491.246094 756.089844 490.953125 C 759.914062 490.484375 763.238281 489.210938 766.085938 487.125 C 770.535156 483.902344 773.253906 480.359375 774.199219 476.542969 Z M 774.199219 476.542969 "/>
<path style=" stroke:none;fill-rule:nonzero;fill:rgb(100%,100%,100%);fill-opacity:1;" d="M 785.15625 429.035156 L 796.226562 423.558594 L 792.1875 415.503906 L 760.867188 431.214844 L 764.867188 439.214844 L 775.84375 433.722656 L 793.589844 469.21875 L 802.910156 464.53125 Z M 785.15625 429.035156 "/>
<path style=" stroke:none;fill-rule:nonzero;fill:rgb(100%,100%,100%);fill-opacity:1;" d="M 818.703125 419.640625 L 828.058594 434.792969 L 819.296875 437.511719 Z M 838.394531 451.554688 L 848.4375 448.445312 L 820.78125 406.019531 L 809.042969 409.679688 L 810.058594 460.363281 L 820.066406 457.25 L 819.707031 446.703125 L 832.855469 442.585938 Z M 838.394531 451.554688 "/>
<path style=" stroke:none;fill-rule:nonzero;fill:rgb(100%,100%,100%);fill-opacity:1;" d="M 854.011719 448.066406 L 864.3125 446.28125 L 856.101562 398.363281 L 845.808594 400.148438 Z M 854.011719 448.066406 "/>
<path style=" stroke:none;fill-rule:nonzero;fill:rgb(100%,100%,100%);fill-opacity:1;" d="M 899.671875 444.023438 L 909.429688 443.8125 L 908.449219 395.214844 L 898.527344 395.390625 L 899.121094 425.859375 L 880.949219 395.726562 L 870.410156 395.929688 L 871.390625 444.570312 L 881.339844 444.359375 L 880.699219 412.492188 Z M 899.671875 444.023438 "/>
<path style=" stroke:none;fill-rule:nonzero;fill:rgb(100%,100%,100%);fill-opacity:1;" d="M 940.273438 411.765625 L 941.636719 429.511719 L 932.621094 427.945312 Z M 943.085938 449.167969 L 953.476562 450.996094 L 948.367188 400.664062 L 936.28125 398.492188 L 913.898438 443.984375 L 924.1875 445.816406 L 928.738281 436.285156 L 942.316406 438.65625 Z M 943.085938 449.167969 "/>
<path style=" stroke:none;fill-rule:nonzero;fill:rgb(100%,100%,100%);fill-opacity:1;" d="M 986.820312 442.65625 C 987.507812 443.9375 987.46875 445.558594 986.691406 447.519531 C 985.886719 449.679688 984.785156 451.007812 983.386719 451.511719 C 981.976562 451.933594 980.28125 451.765625 978.1875 450.996094 L 970.347656 447.984375 L 974.742188 436.53125 L 982.441406 439.480469 C 984.613281 440.277344 986.058594 441.339844 986.820312 442.65625 Z M 992.695312 424.703125 C 993.347656 425.859375 993.347656 427.257812 992.695312 428.925781 C 992.402344 429.683594 991.984375 430.289062 991.460938 430.710938 C 990.949219 431.132812 990.390625 431.433594 989.765625 431.652344 C 989.171875 431.816406 988.496094 431.855469 987.714844 431.816406 C 987.039062 431.734375 986.308594 431.5625 985.628906 431.3125 L 977.882812 428.328125 L 981.453125 418.925781 L 988.980469 421.8125 C 990.867188 422.535156 992.109375 423.46875 992.695312 424.703125 Z M 987.84375 460.492188 C 991.597656 459.550781 994.355469 456.828125 996.058594 452.363281 C 997.074219 449.726562 997.421875 447.300781 997.15625 445.082031 C 996.863281 442.996094 995.683594 440.910156 993.539062 438.785156 C 995.765625 438.566406 997.667969 437.804688 999.289062 436.523438 C 1000.898438 435.214844 1002.136719 433.558594 1002.914062 431.460938 C 1003.800781 429.117188 1004.09375 427.039062 1003.800781 425.160156 C 1003.5 423.292969 1002.824219 421.589844 1001.707031 420.136719 C 1000.605469 418.644531 999.160156 417.371094 997.375 416.273438 C 995.671875 415.164062 993.804688 414.277344 991.789062 413.507812 L 974.824219 406.988281 L 957.457031 452.445312 L 974.003906 458.742188 C 979.597656 460.914062 984.183594 461.472656 987.84375 460.492188 Z M 987.84375 460.492188 "/>
<path style=" stroke:none;fill-rule:nonzero;fill:rgb(100%,100%,100%);fill-opacity:1;" d="M 997.292969 469.261719 L 1020.765625 426.664062 L 1029.941406 431.71875 L 1006.464844 474.316406 Z M 997.292969 469.261719 "/>
<path style=" stroke:none;fill-rule:nonzero;fill:rgb(100%,100%,100%);fill-opacity:1;" d="M 1012.738281 477.675781 L 1037.769531 495.894531 L 1043.078125 488.570312 L 1026.488281 476.484375 L 1049.769531 444.488281 L 1041.375 438.363281 Z M 1012.738281 477.675781 "/>
<path style=" stroke:none;fill-rule:nonzero;fill:rgb(100%,100%,100%);fill-opacity:1;" d="M 1042.445312 500.71875 L 1075.917969 465.472656 L 1083.488281 472.660156 L 1050.019531 507.90625 Z M 1042.445312 500.71875 "/>
<path style=" stroke:none;fill-rule:nonzero;fill:rgb(100%,100%,100%);fill-opacity:1;" d="M 1100.023438 504.75 L 1107.804688 514.363281 L 1114.738281 508.742188 L 1092.78125 481.476562 L 1085.804688 487.097656 L 1093.507812 496.664062 L 1062.605469 521.558594 L 1069.125 529.640625 Z M 1100.023438 504.75 "/>
<path style=" stroke:none;fill-rule:nonzero;fill:rgb(100%,100%,100%);fill-opacity:1;" d="M 1105.753906 550.625 L 1137.714844 548.015625 L 1132.359375 538.441406 L 1113.300781 540.398438 L 1124.871094 525.082031 L 1119.46875 515.5625 L 1100.492188 541.679688 L 1083.683594 551.128906 L 1088.789062 560.203125 Z M 1105.753906 550.625 "/>
<path style=" stroke:none;fill-rule:nonzero;fill:rgb(100%,100%,100%);fill-opacity:1;" d="M 642.617188 791.554688 C 646.1875 793.386719 650.199219 793.386719 654.574219 791.554688 C 658.621094 789.851562 661.140625 787.132812 662.0625 783.390625 C 663.042969 779.820312 663.382812 776.066406 663.117188 772.148438 C 662.960938 769.382812 662.996094 766.828125 663.289062 764.445312 C 663.417969 763.292969 663.71875 762.394531 664.105469 761.753906 C 664.480469 761.167969 664.992188 760.75 665.632812 760.484375 C 666.394531 760.191406 667.082031 760.0625 667.757812 760.191406 C 668.445312 760.316406 669.078125 760.574219 669.550781 760.949219 C 670.148438 761.371094 670.625 761.894531 671 762.488281 C 671.421875 763.109375 671.804688 763.761719 672.070312 764.402344 C 672.914062 766.398438 673.003906 768.191406 672.363281 769.71875 C 671.804688 771.296875 670.789062 772.789062 669.386719 774.234375 L 675.796875 781.980469 C 677.460938 780.238281 678.746094 778.535156 679.632812 776.871094 C 680.484375 775.269531 681.035156 773.546875 681.289062 771.808594 C 681.847656 768.238281 681.417969 764.710938 679.925781 761.179688 C 678.140625 756.96875 675.503906 753.945312 672.015625 752.070312 C 668.519531 750.238281 664.949219 750.0625 661.367188 751.554688 C 657.75 753.09375 655.417969 755.464844 654.402344 758.742188 C 653.46875 761.808594 653.074219 766.066406 653.246094 771.46875 C 653.382812 774.1875 653.210938 776.660156 652.789062 778.828125 C 652.449219 780.742188 651.507812 782.0625 650.015625 782.648438 C 648.988281 783.078125 648.09375 783.242188 647.242188 783.160156 C 646.4375 783.078125 645.722656 782.785156 645.035156 782.316406 C 644.441406 781.886719 643.890625 781.292969 643.367188 780.523438 C 642.910156 779.808594 642.480469 778.984375 642.097656 778.179688 C 641.628906 776.945312 641.328125 775.800781 641.246094 774.691406 C 641.207031 773.621094 641.328125 772.605469 641.628906 771.625 C 641.96875 770.644531 642.390625 769.710938 643.039062 768.777344 C 643.671875 767.835938 644.402344 766.945312 645.253906 766.003906 L 638.398438 759.464844 C 636.613281 761.289062 635.292969 763.109375 634.351562 764.914062 C 633.5 766.652344 632.988281 768.566406 632.777344 770.609375 C 632.355469 774.398438 632.820312 777.921875 634.1875 781.203125 C 636.28125 786.273438 639.121094 789.726562 642.617188 791.554688 Z M 642.617188 791.554688 "/>
<path style=" stroke:none;fill-rule:nonzero;fill:rgb(100%,100%,100%);fill-opacity:1;" d="M 674.953125 842.695312 C 679.457031 843.511719 684.273438 842.148438 689.390625 838.660156 L 714.230469 821.464844 L 708.316406 812.914062 L 683.585938 830.007812 C 680.484375 832.140625 677.976562 833.121094 675.96875 832.957031 C 675.035156 832.863281 674.101562 832.488281 673.125 831.800781 C 672.226562 831.171875 671.292969 830.191406 670.347656 828.828125 C 668.609375 826.273438 668.023438 824.058594 668.65625 822.1875 C 669.203125 820.3125 671.035156 818.269531 674.140625 816.109375 L 698.785156 799.117188 L 692.871094 790.566406 L 667.628906 807.980469 C 662.695312 811.375 659.8125 815.367188 659.03125 819.882812 C 658.273438 824.394531 659.628906 829.121094 662.996094 834.054688 C 666.449219 839.042969 670.441406 841.9375 674.953125 842.695312 Z M 674.953125 842.695312 "/>
<path style=" stroke:none;fill-rule:nonzero;fill:rgb(100%,100%,100%);fill-opacity:1;" d="M 714.011719 885.644531 C 718.011719 885.847656 721.664062 884.234375 724.90625 880.738281 C 727.9375 877.550781 729.117188 874.0625 728.429688 870.273438 C 727.890625 866.609375 726.691406 863.039062 724.859375 859.597656 C 723.585938 857.117188 722.609375 854.753906 721.882812 852.449219 C 721.554688 851.339844 721.425781 850.441406 721.554688 849.683594 C 721.671875 848.996094 721.976562 848.402344 722.40625 847.886719 C 722.992188 847.292969 723.585938 846.910156 724.238281 846.734375 C 724.914062 846.570312 725.601562 846.570312 726.222656 846.734375 C 726.910156 846.910156 727.542969 847.164062 728.144531 847.550781 C 728.796875 847.933594 729.382812 848.363281 729.886719 848.875 C 731.460938 850.359375 732.273438 851.945312 732.3125 853.59375 C 732.441406 855.25 732.136719 857.042969 731.425781 858.949219 L 740.441406 863.386719 C 741.246094 861.136719 741.714844 859.039062 741.851562 857.207031 C 742.015625 855.339844 741.804688 853.554688 741.328125 851.851562 C 740.394531 848.410156 738.566406 845.34375 735.753906 842.695312 C 732.441406 839.59375 728.789062 837.898438 724.8125 837.632812 C 720.90625 837.378906 717.582031 838.660156 714.898438 841.46875 C 712.226562 844.316406 711.082031 847.476562 711.464844 850.871094 C 711.851562 854.066406 713.203125 858.105469 715.585938 862.96875 C 716.777344 865.421875 717.625 867.726562 718.140625 869.851562 C 718.605469 871.8125 718.269531 873.347656 717.160156 874.53125 C 716.398438 875.289062 715.632812 875.847656 714.863281 876.105469 C 714.101562 876.359375 713.296875 876.359375 712.480469 876.234375 C 711.757812 876.066406 710.988281 875.71875 710.230469 875.253906 C 709.507812 874.785156 708.78125 874.238281 708.097656 873.597656 C 707.152344 872.699219 706.4375 871.765625 705.9375 870.820312 C 705.46875 869.84375 705.175781 868.828125 705.039062 867.847656 C 704.910156 866.832031 704.957031 865.757812 705.128906 864.707031 C 705.332031 863.554688 705.6875 862.410156 706.074219 861.246094 L 697.128906 858.015625 C 696.230469 860.394531 695.765625 862.609375 695.691406 864.613281 C 695.597656 866.609375 695.890625 868.570312 696.53125 870.484375 C 697.675781 874.144531 699.554688 877.167969 702.101562 879.601562 C 706.101562 883.390625 710.054688 885.378906 714.011719 885.644531 Z M 714.011719 885.644531 "/>
<path style=" stroke:none;fill-rule:nonzero;fill:rgb(100%,100%,100%);fill-opacity:1;" d="M 771.46875 882.148438 L 781.851562 888.839844 L 786.695312 881.296875 L 757.207031 862.363281 L 752.363281 869.886719 L 762.699219 876.535156 L 741.246094 909.898438 L 749.980469 915.554688 Z M 771.46875 882.148438 "/>
<path style=" stroke:none;fill-rule:nonzero;fill:rgb(100%,100%,100%);fill-opacity:1;" d="M 803.96875 902.371094 L 801.5 920.023438 L 793.039062 916.523438 Z M 798.742188 939.503906 L 808.484375 943.507812 L 814.222656 893.207031 L 802.863281 888.527344 L 771.332031 928.199219 L 781 932.191406 L 787.464844 923.847656 L 800.234375 929.085938 Z M 798.742188 939.503906 "/>
<path style=" stroke:none;fill-rule:nonzero;fill:rgb(100%,100%,100%);fill-opacity:1;" d="M 829.816406 949.226562 L 841.113281 901.921875 L 851.285156 904.347656 L 839.988281 951.652344 Z M 829.816406 949.226562 "/>
<path style=" stroke:none;fill-rule:nonzero;fill:rgb(100%,100%,100%);fill-opacity:1;" d="M 891.550781 958.109375 L 901.253906 958.710938 L 904.277344 910.191406 L 894.359375 909.558594 L 892.484375 939.980469 L 876.828125 908.488281 L 866.316406 907.808594 L 863.289062 956.367188 L 873.222656 956.953125 L 875.207031 925.132812 Z M 891.550781 958.109375 "/>
<path style=" stroke:none;fill-rule:nonzero;fill:rgb(100%,100%,100%);fill-opacity:1;" d="M 937.214844 919.132812 L 944.101562 935.558594 L 935.039062 936.878906 Z M 951.726562 953.722656 L 962.109375 952.230469 L 941.382812 906.023438 L 929.214844 907.808594 L 922.355469 958.015625 L 932.695312 956.515625 L 933.976562 946.023438 L 947.644531 944.019531 Z M 951.726562 953.722656 "/>
<path style=" stroke:none;fill-rule:nonzero;fill:rgb(100%,100%,100%);fill-opacity:1;" d="M 998.136719 920.316406 C 999.5 920.875 1000.523438 922.109375 1001.25 924.070312 C 1002.015625 926.230469 1002.0625 927.976562 1001.285156 929.261719 C 1000.523438 930.496094 999.125 931.511719 997.035156 932.234375 L 989.164062 935.09375 L 984.988281 923.511719 L 992.734375 920.746094 C 994.902344 919.929688 996.734375 919.804688 998.136719 920.316406 Z M 990.910156 902.828125 C 992.140625 903.351562 993.074219 904.402344 993.675781 906.023438 C 993.941406 906.839844 994.015625 907.554688 993.898438 908.238281 C 993.804688 908.871094 993.59375 909.476562 993.210938 910.035156 C 992.878906 910.582031 992.402344 911.050781 991.808594 911.527344 C 991.222656 911.910156 990.574219 912.25 989.859375 912.453125 L 982.066406 915.261719 L 978.664062 905.8125 L 986.242188 903.09375 C 988.101562 902.40625 989.675781 902.316406 990.910156 902.828125 Z M 1010.523438 933.167969 C 1012.785156 929.972656 1013.078125 926.148438 1011.464844 921.632812 C 1010.523438 918.996094 1009.214844 916.917969 1007.582031 915.425781 C 1006.019531 914.015625 1003.71875 913.210938 1000.746094 913 C 1002.273438 911.390625 1003.253906 909.558594 1003.628906 907.507812 C 1004.011719 905.476562 1003.847656 903.425781 1003.070312 901.335938 C 1002.226562 898.992188 1001.082031 897.21875 999.636719 895.980469 C 998.226562 894.707031 996.617188 893.882812 994.792969 893.554688 C 993 893.125 991.039062 893.085938 989 893.378906 C 986.964844 893.730469 984.953125 894.242188 982.957031 894.957031 L 965.84375 901.089844 L 982.269531 946.875 L 998.949219 940.878906 C 1004.570312 938.875 1008.453125 936.273438 1010.523438 933.167969 Z M 1010.523438 933.167969 "/>
<path style=" stroke:none;fill-rule:nonzero;fill:rgb(100%,100%,100%);fill-opacity:1;" d="M 1013.671875 881.339844 L 1022.800781 876.25 L 1046.464844 918.730469 L 1037.339844 923.820312 Z M 1013.671875 881.339844 "/>
<path style=" stroke:none;fill-rule:nonzero;fill:rgb(100%,100%,100%);fill-opacity:1;" d="M 1066.609375 906.234375 L 1091.007812 887.210938 L 1085.457031 880.113281 L 1069.253906 892.703125 L 1044.957031 861.464844 L 1036.734375 867.855469 Z M 1066.609375 906.234375 "/>
<path style=" stroke:none;fill-rule:nonzero;fill:rgb(100%,100%,100%);fill-opacity:1;" d="M 1107.550781 870.960938 L 1114.699219 863.296875 L 1079.25 830.0625 L 1072.054688 837.679688 Z M 1107.550781 870.960938 "/>
<path style=" stroke:none;fill-rule:nonzero;fill:rgb(100%,100%,100%);fill-opacity:1;" d="M 1109.636719 804.996094 L 1116.523438 794.789062 L 1109.125 789.769531 L 1089.46875 818.785156 L 1096.921875 823.808594 L 1103.796875 813.59375 L 1136.65625 835.847656 L 1142.488281 827.253906 Z M 1109.636719 804.996094 "/>
<path style=" stroke:none;fill-rule:nonzero;fill:rgb(100%,100%,100%);fill-opacity:1;" d="M 1149.335938 772.695312 L 1128.011719 748.746094 L 1123.589844 758.789062 L 1136.609375 772.871094 L 1117.457031 772.789062 L 1113.035156 782.867188 L 1145.332031 782.316406 L 1162.996094 790.019531 L 1167.167969 780.53125 Z M 1149.335938 772.695312 "/>
<path style=" stroke:none;fill-rule:evenodd;fill:rgb(100%,100%,100%);fill-opacity:1;" d="M 1133.925781 562.234375 C 1135.804688 562.1875 1137.496094 563.261719 1138.273438 565 C 1163.332031 619.132812 1169.246094 680.238281 1155 738.144531 C 1154.445312 740.707031 1151.898438 742.320312 1149.335938 741.6875 C 1146.789062 741.035156 1145.296875 738.445312 1146.011719 735.929688 C 1159.761719 680.027344 1154.058594 621.085938 1129.890625 568.871094 C 1128.441406 565.851562 1130.574219 562.324219 1133.925781 562.234375 Z M 1133.925781 562.234375 "/>
</g>
</svg>
