<svg width="64" height="64" viewBox="0 0 64 64" fill="none" xmlns="http://www.w3.org/2000/svg">
<path fill-rule="evenodd" clip-rule="evenodd" d="M45.9996 28.0001C45.9996 30.3639 45.534 32.7045 44.6294 34.8884C43.7248 37.0722 42.399 39.0565 40.7275 40.728C39.0561 42.3995 37.0718 43.7253 34.8879 44.6299C32.704 45.5345 30.3634 46.0001 27.9996 46.0001C25.6358 46.0001 23.2951 45.5345 21.1113 44.6299C18.9274 43.7253 16.9431 42.3995 15.2717 40.728C13.6002 39.0565 12.2743 37.0722 11.3698 34.8884C10.4652 32.7045 9.99959 30.3639 9.99959 28.0001C9.99959 23.2262 11.896 18.6478 15.2717 15.2722C18.6473 11.8965 23.2257 10.0001 27.9996 10.0001C32.7735 10.0001 37.3519 11.8965 40.7275 15.2722C44.1032 18.6478 45.9996 23.2262 45.9996 28.0001ZM42.7196 46.9601C37.8971 50.704 31.8291 52.4693 25.7508 51.8966C19.6725 51.324 14.041 48.4564 10.0026 43.8777C5.96421 39.2989 3.82259 33.3533 4.01373 27.2511C4.20487 21.1489 6.71438 15.3489 11.0314 11.0319C15.3484 6.71487 21.1484 4.20535 27.2506 4.01422C33.3528 3.82308 39.2984 5.9647 43.8772 10.0031C48.4559 14.0415 51.3235 19.673 51.8962 25.7513C52.4688 31.8295 50.7035 37.8976 46.9596 42.7201L58.1196 53.8801C58.4143 54.1547 58.6507 54.4859 58.8147 54.8539C58.9787 55.2219 59.0668 55.6192 59.074 56.022C59.0811 56.4248 59.007 56.8249 58.8561 57.1985C58.7052 57.572 58.4806 57.9114 58.1957 58.1962C57.9109 58.4811 57.5715 58.7057 57.198 58.8566C56.8244 59.0075 56.4243 59.0816 56.0215 59.0744C55.6187 59.0673 55.2214 58.9792 54.8534 58.8152C54.4854 58.6512 54.1542 58.4148 53.8796 58.1201L42.7196 46.9601Z" fill="white"/>
</svg>
