<svg width="114" height="115" viewBox="0 0 114 115" fill="none" xmlns="http://www.w3.org/2000/svg">
<path d="M51.5829 72.9626C51.6124 80.6141 51.7594 88.2688 51.5483 95.9136C51.5156 97.0971 51.5483 98.5 51.5483 99.3844C39.5878 99.6177 24.998 99.4258 13.0333 99.3844C11.5638 99.3793 10.0956 99.5945 8.54102 99.3844C8.54102 85.8753 8.54102 71.9084 8.54102 58.0272C22.2428 58.0272 38.1366 57.8859 51.5829 58.0271C51.5 59.5 51.7794 61.0937 51.5829 62.5C51.2919 64.5826 51.6965 64.5 51.5829 66.5C51.6965 69 51.5829 70.9932 51.5829 72.9626ZM18.9107 76.308C18.8213 77.616 18.9282 79.59 19 81.9999C19 83.3901 18.9107 84.6403 18.9107 86.0105C26.5461 86.0105 33.9091 86.0105 40.8734 86.0105C40.8734 83.8153 40.8734 81.8989 40.9882 79.2217C40.9582 78.2072 40.9282 77.1927 41.0955 75.3233C41 73.9999 41.0955 72.9626 41.0955 70.9999C35 70.9999 25.4652 70.9999 19 70.9999C18.9107 72.9626 19 74.9999 18.9107 76.308Z" fill="#F6F7F7"/>
<path d="M87.9759 108.571C92.6001 108.571 96.729 108.571 101.207 108.571C101.207 100.734 101.256 93.4253 101.187 86.1174C101.15 82.2207 101.962 78.9032 106.661 78.9422C111.157 78.9796 112.379 81.9049 112.31 86.0291C112.157 95.1744 112.263 104.324 112.263 113.82C75.8445 113.82 39.6406 113.82 3.14062 113.82C3.14062 109.759 3.14062 105.704 3.14062 101.2C12.0622 101.2 20.8409 101.209 29.6196 101.198C37.4488 101.187 45.296 101.463 53.1004 101.01C57.5122 100.754 59 102 59 106C59 106.5 58.8036 107.63 58.9506 108.571C68.5423 108.571 78.0115 108.571 87.9759 108.571Z" fill="#F7F7F7"/>
<path d="M51.657 37.9988C51.657 44.1321 51.657 49.7658 51.657 55.8396C37.1481 55.8396 22.9321 55.8396 8.88867 55.8396C8.88867 42.3992 8.88867 29.049 8.88867 15.4312C23.2622 15.4312 37.154 15.4312 51.657 15.4312C51.657 22.9615 51.657 30.2304 51.657 37.9988ZM19.5304 23.1597C19.5 24 19.5373 24.2826 19.5304 24.8289C19.4327 32.5606 19.4639 40.2939 19.4639 47.9329C26.9999 47.9329 33.8925 47.9329 40.8693 47.9329C40.8693 39.6804 40.8693 31.7599 40.8693 23.1597C34.4779 23.1597 26.7274 23.1108 19.5304 23.1597Z" fill="#F1F1F1"/>
<path d="M77.52 62.9845C81.1678 60.6392 86.181 61.595 87.481 65.4997C85.633 67.9213 84.0965 69.7862 82.56 71.6512C78.474 74.0982 74.6007 73.5409 71.0757 70.3767C73.3654 67.4535 75.4427 65.219 77.52 62.9845Z" fill="white"/>
<path d="M91.1799 63.8651C95.1403 61.458 100.785 62.3365 102.425 66.2276C100.478 68.6826 98.8522 70.5751 97.2263 72.4675C92.7814 74.9833 88.4292 74.4861 84.34 71.3719C86.7559 68.4074 88.9679 66.1363 91.1799 63.8651Z" fill="white"/>
<path d="M61.801 64.0551C66.0236 61.353 70.2732 59.0209 74.8138 63.5894C72.6826 65.9835 70.5891 67.76 68.806 69.807C66.2414 72.7512 61.7881 72.8954 59 69.5572C59.9439 67.4896 60.8725 65.7723 61.801 64.0551Z" fill="white"/>
<path d="M57.7787 69.6295C57.4171 70.0995 57.1375 70.2959 56.8068 70.7828C56.174 71.3083 55.6572 71.6164 54.5198 72.0183C53.3342 72.3561 52.7691 72.6003 52.204 72.8445C51.9535 72.9177 51.703 72.9909 51.0632 73C50.3085 70.9233 49.943 68.9108 50.0072 66.287C53.4538 64.4505 56.9832 63.7252 60 62.5C60.5398 63.0092 60.5672 63.0183 61 63.8568C59.8606 65.885 58.8282 67.5839 57.7787 69.6295Z" fill="white"/>
<path d="M60 62.5014C57.1397 64.4407 53.8105 66.0819 50.0988 68C49.8756 66.2536 50.0349 64.2302 50.5322 62.016C53.7572 61.9512 56.6442 62.0772 60 62.5014Z" fill="white"/>
<path d="M17.0234 76.0538C25.2113 75.955 33.0548 76.0112 41.4261 76.072C41.9885 77.1061 42.023 78.1354 41.9915 79.5507C41.9255 79.9366 42.2764 80.5037 41.4997 80.5C33.7706 80.7115 25.9957 80.4013 19.0434 80.6166C18.6892 80.7476 18.145 80.4952 17.5006 80.6166C16.9699 79.0129 17.5 77.5 17.0234 76.0538Z" fill="white"/>
<rect x="9" y="5" width="43" height="8" fill="white"/>
</svg>
