<svg xmlns="http://www.w3.org/2000/svg" xmlns:xlink="http://www.w3.org/1999/xlink" width="1484" zoomAndPan="magnify" viewBox="0 0 768 576" height="1113" preserveAspectRatio="xMidYMid meet" version="1.0"><defs><clipPath id="2e021d56c5"><path d="M 247.699219 151.699219 L 519.949219 151.699219 L 519.949219 423.949219 L 247.699219 423.949219 Z M 247.699219 151.699219 " clip-rule="nonzero" /></clipPath></defs><path fill="#ffffff" d="M 284.074219 239.886719 C 283.28125 239.867188 282.570312 240.34375 282.246094 241.066406 C 271.550781 264.164062 269.042969 290.234375 275.128906 314.941406 C 275.347656 316.035156 276.453125 316.722656 277.523438 316.453125 C 278.617188 316.175781 279.269531 315.070312 278.960938 313.996094 C 273.09375 290.144531 275.511719 264.996094 285.820312 242.71875 C 286.457031 241.410156 285.511719 239.902344 284.074219 239.886719 Z M 284.074219 239.886719 " fill-opacity="1" fill-rule="evenodd" /><path fill="#ffffff" d="M 446.210938 283.625 C 447.390625 283.585938 448.066406 284.296875 448.484375 286.710938 C 453.820312 317.941406 441.132812 337.949219 422.464844 340.339844 C 421.226562 340.503906 420.195312 340.503906 419.339844 340.359375 C 418.503906 342.300781 417.722656 344.191406 417.054688 346.0625 C 416.234375 348.292969 412.75 346.714844 413.585938 344.425781 C 414.949219 340.777344 416.507812 337.074219 419.339844 330.84375 C 422.152344 324.625 428 315.617188 433.300781 308.042969 C 434.371094 306.519531 432.996094 305.410156 432.226562 306.316406 C 425.871094 313.976562 419.136719 323.675781 414.328125 333.480469 C 411.945312 338.347656 411.128906 336.421875 409.863281 332.917969 C 403.03125 313.945312 414.417969 292.8125 443.433594 284.257812 C 444.597656 283.933594 445.484375 283.640625 446.210938 283.625 Z M 353.722656 245.570312 C 352.746094 245.515625 352.019531 245.769531 351.019531 246.785156 C 341.59375 253.867188 334.789062 264.234375 332.316406 276.234375 C 332.878906 277.269531 333.769531 278.105469 335.132812 278.394531 C 340.5625 279.578125 339.054688 283.988281 343.59375 283.605469 C 345.648438 283.480469 338.746094 292.757812 343.757812 296.644531 C 349.660156 301.234375 348.824219 304.035156 349.207031 305.523438 C 349.863281 307.921875 346.777344 312.332031 348.664062 314.964844 C 354.472656 320.140625 355.214844 317.039062 356.035156 310.988281 C 356.289062 309.082031 358.996094 307.179688 359.609375 304.6875 C 360.609375 300.640625 363.496094 303.128906 363.914062 299.132812 C 364.332031 295.160156 368.945312 294.464844 364.835938 290.347656 C 360.136719 285.648438 354.492188 279.054688 347.335938 280.324219 C 344.519531 280.816406 344.433594 283.320312 342.929688 279.722656 C 341.4375 276.167969 339.53125 276.167969 337.808594 276.585938 C 336.046875 277 336.625 271.683594 338.695312 271.359375 C 339.132812 271.285156 340.914062 273.445312 341.789062 272.554688 C 342.949219 271.410156 342.566406 270.226562 342.765625 269.542969 C 344 265.054688 347.828125 269.234375 353.296875 261.410156 C 357.476562 255.4375 359.179688 260.429688 359.449219 256.503906 C 359.683594 252.875 355.074219 251.472656 352.730469 253.089844 C 350.894531 254.378906 347.824219 257.035156 346.917969 254.289062 C 346.011719 251.53125 350.730469 248.96875 352.96875 249.0625 C 355.199219 249.132812 358.777344 250.875 359.609375 249.460938 C 360.425781 248.066406 358.578125 246.425781 354.796875 245.722656 C 354.394531 245.640625 354.046875 245.589844 353.722656 245.570312 Z M 370.828125 238.851562 C 369.648438 238.890625 368.59375 239 367.90625 239.144531 C 365.230469 239.726562 359.207031 241.976562 362.546875 243.992188 C 365.90625 246.003906 363.289062 247.117188 362.984375 248.527344 C 362.695312 249.945312 364.21875 252.503906 365.230469 253.144531 C 367.140625 254.394531 367.101562 252.613281 367.90625 250.761719 C 368.574219 249.257812 371.933594 248.019531 375.074219 247.476562 C 378.195312 246.964844 377.070312 244.570312 378.410156 241.449219 C 379.195312 239.34375 374.402344 238.761719 370.828125 238.851562 Z M 380.6875 229.152344 C 410.261719 229.152344 434.609375 251.597656 437.644531 280.355469 C 430.816406 282.769531 424.875 285.90625 419.941406 289.632812 C 419.941406 287.527344 417.597656 285.363281 420.683594 283.660156 C 424.40625 281.628906 423.640625 278.613281 420.335938 277.175781 C 417.03125 275.742188 416.488281 267.210938 422.425781 273.496094 C 425.605469 276.851562 427.691406 276.707031 428.960938 275.851562 C 425.058594 257.589844 411.28125 242.152344 393.070312 238.449219 C 390.945312 238.019531 388.785156 240.34375 388.472656 242.449219 C 388.058594 245.011719 389.8125 247.152344 391.871094 247.023438 C 394.574219 246.824219 397.808594 245.136719 396.625 248.347656 C 395.425781 251.582031 383.71875 252.960938 381.160156 257.679688 C 379.273438 261.257812 382.175781 263.363281 385.023438 262.308594 C 388.96875 260.875 392.707031 259.515625 397.585938 261.308594 C 401.785156 262.601562 399.425781 267.898438 393.394531 266.175781 C 384.878906 263.746094 373.914062 271.75 375.5625 283.660156 C 376.507812 290.46875 382.898438 294.425781 389.800781 293.878906 C 397.480469 293.28125 396.296875 300.019531 395.445312 305.214844 C 394.917969 308.425781 394.191406 311.855469 394.25 315.089844 C 394.429688 326.128906 392.230469 328.960938 399.839844 327.328125 C 400.800781 327.128906 401.746094 326.746094 402.671875 326.238281 C 402.996094 329.125 403.648438 331.992188 404.667969 334.808594 C 404.992188 335.714844 405.300781 336.589844 405.792969 337.585938 C 405.832031 337.675781 405.882812 337.769531 405.917969 337.839844 C 398.316406 341.601562 389.746094 343.707031 380.683594 343.707031 C 349.054688 343.707031 323.417969 318.046875 323.417969 286.425781 C 323.421875 254.808594 349.078125 229.152344 380.6875 229.152344 Z M 383.953125 204.625 C 361.800781 204.625 340.5625 213.433594 324.890625 229.082031 C 309.222656 244.753906 300.433594 265.992188 300.433594 288.164062 C 300.433594 334.277344 337.816406 371.683594 383.953125 371.683594 C 430.089844 371.683594 467.46875 334.28125 467.46875 288.164062 C 467.46875 242.03125 430.089844 204.625 383.953125 204.625 Z M 383.953125 204.625 " fill-opacity="1" fill-rule="evenodd" /><g clip-path="url(#2e021d56c5)"><path fill="#ffffff" d="M 383.953125 158.402344 C 455.667969 158.402344 513.734375 216.425781 513.734375 288.144531 C 513.734375 359.84375 455.667969 417.90625 383.953125 417.90625 C 312.253906 417.90625 254.191406 359.84375 254.191406 288.144531 C 254.191406 216.429688 312.253906 158.402344 383.953125 158.402344 Z M 383.953125 151.8125 C 308.695312 151.8125 247.601562 212.875 247.601562 288.144531 C 247.601562 363.402344 308.691406 424.5 383.953125 424.5 C 459.226562 424.5 520.324219 363.402344 520.324219 288.144531 C 520.324219 212.875 459.226562 151.8125 383.953125 151.8125 Z M 383.953125 151.8125 " fill-opacity="1" fill-rule="evenodd" /></g><path fill="#ffffff" d="M 303.558594 229.46875 C 303.265625 227.78125 302.269531 226.417969 300.527344 225.382812 C 298.910156 224.402344 297.347656 224.238281 295.824219 224.855469 C 294.351562 225.4375 292.976562 226.25 291.703125 227.339844 C 290.796875 228.082031 289.902344 228.722656 289.015625 229.226562 C 288.578125 229.464844 288.195312 229.605469 287.886719 229.628906 C 287.578125 229.644531 287.304688 229.570312 287.070312 229.429688 C 286.761719 229.246094 286.542969 229.027344 286.414062 228.773438 C 286.269531 228.503906 286.214844 228.230469 286.234375 227.960938 C 286.234375 227.652344 286.289062 227.363281 286.394531 227.070312 C 286.492188 226.761719 286.617188 226.488281 286.777344 226.234375 C 287.25 225.4375 287.832031 224.941406 288.519531 224.78125 C 289.214844 224.582031 289.972656 224.542969 290.832031 224.675781 L 291.863281 220.496094 C 290.84375 220.367188 289.9375 220.351562 289.15625 220.476562 C 288.375 220.589844 287.652344 220.820312 286.980469 221.1875 C 285.617188 221.875 284.527344 222.929688 283.675781 224.34375 C 282.675781 226.015625 282.296875 227.6875 282.546875 229.351562 C 282.800781 231.023438 283.640625 232.277344 285.054688 233.128906 C 286.492188 234 287.910156 234.199219 289.304688 233.730469 C 290.597656 233.257812 292.136719 232.332031 293.949219 230.894531 C 294.882812 230.171875 295.75 229.589844 296.601562 229.191406 C 297.367188 228.828125 298.035156 228.828125 298.636719 229.175781 C 299.035156 229.410156 299.328125 229.703125 299.511719 229.992188 C 299.675781 230.304688 299.761719 230.632812 299.761719 230.972656 C 299.761719 231.296875 299.710938 231.644531 299.582031 231.992188 C 299.453125 232.351562 299.289062 232.699219 299.09375 233.023438 C 298.800781 233.515625 298.476562 233.898438 298.113281 234.203125 C 297.75 234.496094 297.371094 234.695312 296.953125 234.84375 C 296.550781 234.984375 296.097656 235.078125 295.644531 235.097656 C 295.152344 235.113281 294.644531 235.078125 294.121094 235.023438 L 293.589844 239.035156 C 294.683594 239.1875 295.644531 239.203125 296.476562 239.054688 C 297.3125 238.890625 298.09375 238.605469 298.835938 238.148438 C 300.257812 237.347656 301.363281 236.296875 302.140625 234.984375 C 303.339844 232.988281 303.816406 231.132812 303.558594 229.46875 Z M 303.558594 229.46875 " fill-opacity="1" fill-rule="nonzero" /><path fill="#ffffff" d="M 315.632812 214.359375 C 315.523438 212.394531 314.484375 210.527344 312.542969 208.75 L 303.03125 200.074219 L 300.035156 203.339844 L 309.511719 212 C 310.695312 213.074219 311.347656 214.035156 311.453125 214.867188 C 311.527344 215.269531 311.453125 215.703125 311.273438 216.160156 C 311.089844 216.59375 310.765625 217.085938 310.292969 217.609375 C 309.402344 218.574219 308.53125 219.03125 307.695312 218.953125 C 306.863281 218.898438 305.84375 218.335938 304.644531 217.25 L 295.207031 208.640625 L 292.226562 211.929688 L 301.882812 220.738281 C 303.777344 222.464844 305.703125 223.28125 307.660156 223.167969 C 309.625 223.042969 311.453125 222.042969 313.15625 220.15625 C 314.90625 218.246094 315.722656 216.320312 315.632812 214.359375 Z M 315.632812 214.359375 " fill-opacity="1" fill-rule="nonzero" /><path fill="#ffffff" d="M 330.324219 203.324219 C 330.722656 201.648438 330.324219 200 329.125 198.363281 C 328.019531 196.839844 326.636719 196.074219 324.984375 196.058594 C 323.402344 196.027344 321.828125 196.238281 320.226562 196.75 C 319.101562 197.097656 318.027344 197.3125 317.011719 197.4375 C 316.523438 197.492188 316.121094 197.476562 315.8125 197.386719 C 315.523438 197.273438 315.300781 197.09375 315.140625 196.875 C 314.921875 196.585938 314.816406 196.3125 314.796875 196.023438 C 314.777344 195.710938 314.8125 195.441406 314.9375 195.1875 C 315.066406 194.910156 315.230469 194.660156 315.429688 194.445312 C 315.644531 194.207031 315.863281 193.988281 316.101562 193.804688 C 316.863281 193.261719 317.589844 193.042969 318.277344 193.148438 C 318.988281 193.222656 319.710938 193.5 320.457031 193.949219 L 323.011719 190.5 C 322.125 189.996094 321.308594 189.632812 320.527344 189.429688 C 319.765625 189.230469 319.003906 189.15625 318.257812 189.230469 C 316.734375 189.359375 315.296875 189.902344 313.992188 190.863281 C 312.410156 192.023438 311.410156 193.425781 310.992188 195.0625 C 310.59375 196.691406 310.867188 198.179688 311.847656 199.523438 C 312.847656 200.871094 314.0625 201.597656 315.515625 201.703125 C 316.894531 201.773438 318.695312 201.519531 320.90625 200.902344 C 322.035156 200.578125 323.070312 200.398438 324.011719 200.359375 C 324.851562 200.320312 325.488281 200.578125 325.886719 201.121094 C 326.152344 201.503906 326.316406 201.867188 326.375 202.226562 C 326.410156 202.558594 326.375 202.902344 326.246094 203.226562 C 326.117188 203.519531 325.917969 203.808594 325.664062 204.082031 C 325.410156 204.371094 325.117188 204.625 324.8125 204.863281 C 324.355469 205.1875 323.90625 205.425781 323.46875 205.570312 C 323.011719 205.683594 322.582031 205.734375 322.144531 205.699219 C 321.710938 205.683594 321.269531 205.570312 320.835938 205.425781 C 320.382812 205.242188 319.929688 205.023438 319.457031 204.769531 L 317.421875 208.253906 C 318.367188 208.816406 319.238281 209.199219 320.074219 209.382812 C 320.90625 209.566406 321.742188 209.597656 322.597656 209.472656 C 324.230469 209.273438 325.648438 208.730469 326.863281 207.839844 C 328.761719 206.464844 329.921875 204.953125 330.324219 203.324219 Z M 330.324219 203.324219 " fill-opacity="1" fill-rule="nonzero" /><path fill="#ffffff" d="M 335 183.054688 L 339.722656 180.71875 L 338 177.28125 L 324.636719 183.984375 L 326.34375 187.398438 L 331.027344 185.054688 L 338.597656 200.199219 L 342.574219 198.199219 Z M 335 183.054688 " fill-opacity="1" fill-rule="nonzero" /><path fill="#ffffff" d="M 349.3125 179.046875 L 353.304688 185.511719 L 349.566406 186.671875 Z M 357.714844 192.664062 L 362 191.335938 L 350.199219 173.234375 L 345.191406 174.796875 L 345.625 196.421875 L 349.894531 195.09375 L 349.742188 190.59375 L 355.351562 188.835938 Z M 357.714844 192.664062 " fill-opacity="1" fill-rule="nonzero" /><path fill="#ffffff" d="M 364.378906 191.175781 L 368.773438 190.414062 L 365.269531 169.96875 L 360.878906 170.730469 Z M 364.378906 191.175781 " fill-opacity="1" fill-rule="nonzero" /><path fill="#ffffff" d="M 383.859375 189.449219 L 388.023438 189.359375 L 387.605469 168.625 L 383.371094 168.699219 L 383.625 181.699219 L 375.871094 168.84375 L 371.375 168.929688 L 371.792969 189.683594 L 376.039062 189.59375 L 375.765625 175.996094 Z M 383.859375 189.449219 " fill-opacity="1" fill-rule="nonzero" /><path fill="#ffffff" d="M 401.183594 175.6875 L 401.765625 183.257812 L 397.917969 182.589844 Z M 402.382812 191.644531 L 406.816406 192.425781 L 404.636719 170.949219 L 399.480469 170.023438 L 389.929688 189.433594 L 394.320312 190.214844 L 396.261719 186.148438 L 402.054688 187.160156 Z M 402.382812 191.644531 " fill-opacity="1" fill-rule="nonzero" /><path fill="#ffffff" d="M 421.042969 188.867188 C 421.335938 189.414062 421.320312 190.105469 420.988281 190.941406 C 420.644531 191.863281 420.175781 192.429688 419.578125 192.644531 C 418.976562 192.824219 418.253906 192.753906 417.359375 192.425781 L 414.015625 191.140625 L 415.890625 186.253906 L 419.175781 187.511719 C 420.101562 187.851562 420.71875 188.304688 421.042969 188.867188 Z M 423.550781 181.207031 C 423.828125 181.699219 423.828125 182.296875 423.550781 183.007812 C 423.425781 183.332031 423.246094 183.589844 423.023438 183.769531 C 422.804688 183.949219 422.566406 184.078125 422.300781 184.171875 C 422.046875 184.242188 421.757812 184.257812 421.425781 184.242188 C 421.136719 184.207031 420.824219 184.132812 420.535156 184.027344 L 417.230469 182.753906 L 418.753906 178.742188 L 421.964844 179.972656 C 422.769531 180.28125 423.300781 180.679688 423.550781 181.207031 Z M 421.480469 196.476562 C 423.082031 196.074219 424.257812 194.914062 424.984375 193.007812 C 425.417969 191.882812 425.566406 190.847656 425.453125 189.902344 C 425.328125 189.011719 424.824219 188.121094 423.910156 187.214844 C 424.859375 187.121094 425.671875 186.796875 426.363281 186.25 C 427.050781 185.691406 427.578125 184.984375 427.910156 184.089844 C 428.289062 183.089844 428.414062 182.203125 428.289062 181.402344 C 428.160156 180.605469 427.871094 179.878906 427.394531 179.257812 C 426.925781 178.621094 426.308594 178.078125 425.546875 177.609375 C 424.820312 177.136719 424.023438 176.757812 423.164062 176.429688 L 415.925781 173.648438 L 408.515625 193.042969 L 415.574219 195.730469 C 417.960938 196.65625 419.917969 196.894531 421.480469 196.476562 Z M 421.480469 196.476562 " fill-opacity="1" fill-rule="nonzero" /><path fill="#ffffff" d="M 425.511719 200.21875 L 435.527344 182.042969 L 439.441406 184.199219 L 429.425781 202.375 Z M 425.511719 200.21875 " fill-opacity="1" fill-rule="nonzero" /><path fill="#ffffff" d="M 432.101562 203.808594 L 442.78125 211.582031 L 445.046875 208.457031 L 437.96875 203.300781 L 447.902344 189.648438 L 444.320312 187.035156 Z M 432.101562 203.808594 " fill-opacity="1" fill-rule="nonzero" /><path fill="#ffffff" d="M 444.777344 213.640625 L 459.058594 198.601562 L 462.289062 201.667969 L 448.007812 216.707031 Z M 444.777344 213.640625 " fill-opacity="1" fill-rule="nonzero" /><path fill="#ffffff" d="M 469.34375 215.359375 L 472.664062 219.460938 L 475.621094 217.0625 L 466.253906 205.429688 L 463.277344 207.828125 L 466.5625 211.910156 L 453.378906 222.53125 L 456.160156 225.980469 Z M 469.34375 215.359375 " fill-opacity="1" fill-rule="nonzero" /><path fill="#ffffff" d="M 471.789062 234.933594 L 485.425781 233.820312 L 483.140625 229.734375 L 475.007812 230.570312 L 479.945312 224.035156 L 477.640625 219.972656 L 469.542969 231.117188 L 462.371094 235.148438 L 464.550781 239.019531 Z M 471.789062 234.933594 " fill-opacity="1" fill-rule="nonzero" /><path fill="#ffffff" d="M 274.183594 337.730469 C 275.707031 338.511719 277.417969 338.511719 279.285156 337.730469 C 281.011719 337.003906 282.085938 335.84375 282.480469 334.246094 C 282.898438 332.722656 283.042969 331.121094 282.929688 329.449219 C 282.863281 328.269531 282.878906 327.179688 283.003906 326.164062 C 283.058594 325.671875 283.1875 325.289062 283.351562 325.015625 C 283.511719 324.765625 283.730469 324.585938 284.003906 324.472656 C 284.328125 324.347656 284.621094 324.292969 284.910156 324.347656 C 285.203125 324.402344 285.472656 324.511719 285.675781 324.671875 C 285.929688 324.851562 286.132812 325.074219 286.292969 325.328125 C 286.472656 325.59375 286.636719 325.871094 286.75 326.144531 C 287.109375 326.996094 287.148438 327.761719 286.875 328.414062 C 286.636719 329.085938 286.203125 329.722656 285.605469 330.339844 L 288.339844 333.644531 C 289.050781 332.902344 289.597656 332.175781 289.976562 331.464844 C 290.339844 330.78125 290.574219 330.046875 290.683594 329.304688 C 290.921875 327.78125 290.738281 326.277344 290.101562 324.769531 C 289.339844 322.972656 288.214844 321.683594 286.726562 320.882812 C 285.234375 320.101562 283.710938 320.027344 282.183594 320.664062 C 280.640625 321.320312 279.644531 322.332031 279.210938 323.730469 C 278.8125 325.039062 278.644531 326.855469 278.71875 329.160156 C 278.777344 330.320312 278.703125 331.375 278.523438 332.300781 C 278.378906 333.117188 277.976562 333.679688 277.339844 333.929688 C 276.902344 334.113281 276.519531 334.183594 276.15625 334.148438 C 275.8125 334.113281 275.507812 333.988281 275.214844 333.789062 C 274.960938 333.605469 274.726562 333.351562 274.503906 333.023438 C 274.308594 332.71875 274.125 332.367188 273.960938 332.023438 C 273.761719 331.496094 273.632812 331.007812 273.597656 330.535156 C 273.582031 330.078125 273.632812 329.644531 273.761719 329.226562 C 273.90625 328.808594 274.085938 328.410156 274.363281 328.011719 C 274.632812 327.609375 274.945312 327.230469 275.308594 326.828125 L 272.382812 324.039062 C 271.621094 324.816406 271.058594 325.59375 270.65625 326.363281 C 270.292969 327.105469 270.074219 327.921875 269.984375 328.792969 C 269.804688 330.410156 270.003906 331.914062 270.585938 333.3125 C 271.480469 335.476562 272.691406 336.949219 274.183594 337.730469 Z M 274.183594 337.730469 " fill-opacity="1" fill-rule="nonzero" /><path fill="#ffffff" d="M 287.980469 359.550781 C 289.902344 359.898438 291.957031 359.316406 294.140625 357.828125 L 304.738281 350.492188 L 302.214844 346.84375 L 291.664062 354.136719 C 290.339844 355.046875 289.269531 355.464844 288.414062 355.394531 C 288.015625 355.355469 287.617188 355.195312 287.199219 354.902344 C 286.816406 354.632812 286.417969 354.214844 286.015625 353.632812 C 285.273438 352.542969 285.023438 351.597656 285.292969 350.800781 C 285.527344 350 286.308594 349.128906 287.632812 348.207031 L 298.148438 340.957031 L 295.625 337.308594 L 284.855469 344.738281 C 282.75 346.1875 281.519531 347.890625 281.1875 349.816406 C 280.863281 351.742188 281.441406 353.757812 282.878906 355.863281 C 284.351562 357.992188 286.054688 359.226562 287.980469 359.550781 Z M 287.980469 359.550781 " fill-opacity="1" fill-rule="nonzero" /><path fill="#ffffff" d="M 304.644531 377.875 C 306.351562 377.960938 307.910156 377.273438 309.292969 375.78125 C 310.585938 374.421875 311.089844 372.933594 310.796875 371.316406 C 310.566406 369.753906 310.054688 368.230469 309.273438 366.761719 C 308.730469 365.703125 308.3125 364.695312 308.003906 363.710938 C 307.863281 363.238281 307.808594 362.855469 307.863281 362.53125 C 307.914062 362.238281 308.042969 361.984375 308.226562 361.765625 C 308.476562 361.511719 308.730469 361.347656 309.007812 361.273438 C 309.296875 361.203125 309.589844 361.203125 309.855469 361.273438 C 310.148438 361.347656 310.417969 361.457031 310.675781 361.621094 C 310.953125 361.785156 311.203125 361.96875 311.417969 362.1875 C 312.089844 362.820312 312.4375 363.496094 312.453125 364.199219 C 312.507812 364.90625 312.378906 365.671875 312.074219 366.484375 L 315.921875 368.378906 C 316.265625 367.417969 316.464844 366.523438 316.523438 365.742188 C 316.59375 364.945312 316.503906 364.183594 316.300781 363.457031 C 315.902344 361.988281 315.121094 360.679688 313.921875 359.550781 C 312.507812 358.226562 310.949219 357.503906 309.253906 357.390625 C 307.585938 357.28125 306.167969 357.828125 305.023438 359.027344 C 303.882812 360.242188 303.394531 361.589844 303.558594 363.039062 C 303.722656 364.402344 304.300781 366.125 305.316406 368.199219 C 305.824219 369.246094 306.1875 370.230469 306.40625 371.136719 C 306.605469 371.972656 306.460938 372.628906 305.988281 373.132812 C 305.664062 373.457031 305.335938 373.695312 305.007812 373.804688 C 304.683594 373.914062 304.339844 373.914062 303.992188 373.859375 C 303.683594 373.789062 303.355469 373.640625 303.03125 373.441406 C 302.722656 373.242188 302.414062 373.007812 302.121094 372.734375 C 301.71875 372.351562 301.414062 371.953125 301.199219 371.550781 C 301 371.132812 300.875 370.699219 300.816406 370.28125 C 300.761719 369.847656 300.78125 369.390625 300.855469 368.941406 C 300.941406 368.449219 301.09375 367.960938 301.257812 367.464844 L 297.441406 366.085938 C 297.058594 367.101562 296.859375 368.046875 296.828125 368.902344 C 296.789062 369.753906 296.914062 370.589844 297.1875 371.40625 C 297.675781 372.96875 298.476562 374.257812 299.5625 375.296875 C 301.269531 376.914062 302.957031 377.761719 304.644531 377.875 Z M 304.644531 377.875 " fill-opacity="1" fill-rule="nonzero" /><path fill="#ffffff" d="M 329.160156 376.382812 L 333.589844 379.238281 L 335.65625 376.019531 L 323.074219 367.941406 L 321.007812 371.152344 L 325.417969 373.988281 L 316.265625 388.222656 L 319.992188 390.636719 Z M 329.160156 376.382812 " fill-opacity="1" fill-rule="nonzero" /><path fill="#ffffff" d="M 343.027344 385.011719 L 341.972656 392.542969 L 338.363281 391.050781 Z M 340.796875 400.855469 L 344.953125 402.5625 L 347.402344 381.101562 L 342.554688 379.105469 L 329.101562 396.03125 L 333.226562 397.734375 L 335.984375 394.175781 L 341.433594 396.410156 Z M 340.796875 400.855469 " fill-opacity="1" fill-rule="nonzero" /><path fill="#ffffff" d="M 354.054688 405.003906 L 358.875 384.820312 L 363.214844 385.855469 L 358.394531 406.039062 Z M 354.054688 405.003906 " fill-opacity="1" fill-rule="nonzero" /><path fill="#ffffff" d="M 380.394531 408.792969 L 384.535156 409.050781 L 385.824219 388.347656 L 381.59375 388.078125 L 380.792969 401.058594 L 374.113281 387.621094 L 369.628906 387.332031 L 368.335938 408.050781 L 372.574219 408.300781 L 373.421875 394.722656 Z M 380.394531 408.792969 " fill-opacity="1" fill-rule="nonzero" /><path fill="#ffffff" d="M 399.878906 392.164062 L 402.816406 399.171875 L 398.949219 399.734375 Z M 406.070312 406.921875 L 410.5 406.285156 L 401.65625 386.570312 L 396.464844 387.332031 L 393.539062 408.753906 L 397.949219 408.113281 L 398.496094 403.636719 L 404.328125 402.78125 Z M 406.070312 406.921875 " fill-opacity="1" fill-rule="nonzero" /><path fill="#ffffff" d="M 425.871094 392.667969 C 426.453125 392.90625 426.890625 393.433594 427.199219 394.269531 C 427.527344 395.191406 427.546875 395.9375 427.214844 396.484375 C 426.890625 397.011719 426.292969 397.445312 425.402344 397.753906 L 422.042969 398.972656 L 420.261719 394.03125 L 423.566406 392.851562 C 424.492188 392.503906 425.273438 392.449219 425.871094 392.667969 Z M 422.789062 385.207031 C 423.3125 385.429688 423.710938 385.878906 423.96875 386.570312 C 424.082031 386.917969 424.113281 387.222656 424.0625 387.515625 C 424.023438 387.785156 423.933594 388.042969 423.769531 388.28125 C 423.628906 388.515625 423.425781 388.714844 423.171875 388.917969 C 422.921875 389.082031 422.644531 389.226562 422.339844 389.3125 L 419.015625 390.511719 L 417.5625 386.480469 L 420.796875 385.320312 C 421.589844 385.027344 422.261719 384.988281 422.789062 385.207031 Z M 431.15625 398.152344 C 432.121094 396.789062 432.246094 395.15625 431.558594 393.230469 C 431.15625 392.105469 430.597656 391.21875 429.902344 390.582031 C 429.234375 389.980469 428.253906 389.636719 426.984375 389.546875 C 427.636719 388.859375 428.054688 388.078125 428.214844 387.203125 C 428.378906 386.335938 428.308594 385.460938 427.976562 384.570312 C 427.617188 383.570312 427.128906 382.8125 426.511719 382.285156 C 425.910156 381.742188 425.222656 381.390625 424.445312 381.25 C 423.679688 381.066406 422.84375 381.050781 421.972656 381.175781 C 421.105469 381.324219 420.246094 381.542969 419.394531 381.847656 L 412.09375 384.464844 L 419.101562 404 L 426.21875 401.441406 C 428.617188 400.585938 430.273438 399.476562 431.15625 398.152344 Z M 431.15625 398.152344 " fill-opacity="1" fill-rule="nonzero" /><path fill="#ffffff" d="M 432.5 376.039062 L 436.394531 373.867188 L 446.492188 391.992188 L 442.597656 394.164062 Z M 432.5 376.039062 " fill-opacity="1" fill-rule="nonzero" /><path fill="#ffffff" d="M 455.085938 386.660156 L 465.496094 378.542969 L 463.128906 375.515625 L 456.214844 380.886719 L 445.847656 367.558594 L 442.339844 370.285156 Z M 455.085938 386.660156 " fill-opacity="1" fill-rule="nonzero" /><path fill="#ffffff" d="M 472.554688 371.609375 L 475.605469 368.339844 L 460.480469 354.160156 L 457.410156 357.410156 Z M 472.554688 371.609375 " fill-opacity="1" fill-rule="nonzero" /><path fill="#ffffff" d="M 473.445312 343.464844 L 476.382812 339.109375 L 473.226562 336.96875 L 464.839844 349.347656 L 468.019531 351.492188 L 470.953125 347.132812 L 484.972656 356.628906 L 487.460938 352.960938 Z M 473.445312 343.464844 " fill-opacity="1" fill-rule="nonzero" /><path fill="#ffffff" d="M 490.382812 329.683594 L 481.285156 319.464844 L 479.398438 323.75 L 484.953125 329.757812 L 476.78125 329.722656 L 474.894531 334.023438 L 488.675781 333.789062 L 496.210938 337.074219 L 497.992188 333.027344 Z M 490.382812 329.683594 " fill-opacity="1" fill-rule="nonzero" /><path fill="#ffffff" d="M 483.808594 239.886719 C 484.609375 239.867188 485.332031 240.324219 485.664062 241.066406 C 496.355469 264.164062 498.878906 290.234375 492.800781 314.941406 C 492.5625 316.035156 491.476562 316.722656 490.382812 316.453125 C 489.296875 316.175781 488.660156 315.070312 488.964844 313.996094 C 494.832031 290.144531 492.398438 264.996094 482.085938 242.71875 C 481.46875 241.429688 482.378906 239.925781 483.808594 239.886719 Z M 483.808594 239.886719 " fill-opacity="1" fill-rule="evenodd" /></svg>