<svg width="24" height="17" viewBox="0 0 24 17" fill="none" xmlns="http://www.w3.org/2000/svg">
<path d="M12.5277 16.9711L7.61002 16.899L6.53053 16.875C5.71491 16.8589 5.0992 16.8429 4.68339 16.8269C3.99571 16.7788 3.388 16.6986 2.86024 16.5864C2.14058 16.4261 1.57285 16.0814 1.15704 15.5524C0.821197 15.1196 0.573313 14.5344 0.413388 13.797C0.317433 13.3481 0.229474 12.6668 0.149511 11.7531L0.125523 11.6088C-0.114365 8.65908 -0.0104137 5.77351 0.437377 2.95206C0.565317 2.15051 0.877171 1.52129 1.37294 1.06441C1.86871 0.607527 2.50841 0.347023 3.29204 0.282899C7.92987 -0.0377202 13.2554 -0.0858131 19.2686 0.138621C19.6364 0.138621 20.1881 0.202744 20.9238 0.330992C21.7394 0.475271 22.3711 0.835968 22.8189 1.41308C23.1867 1.89401 23.4506 2.54327 23.6105 3.36085C23.7225 3.84178 23.8104 4.58722 23.8744 5.59717L23.8984 5.90977C24.0903 8.2022 24.0103 10.5507 23.6585 12.9554C23.5626 13.7088 23.4266 14.31 23.2507 14.7589C23.0428 15.32 22.7549 15.7608 22.3871 16.0814C21.9553 16.4341 21.3956 16.6345 20.7079 16.6826C19.0287 16.7948 17.6693 16.875 16.6298 16.9231C15.1425 16.9872 13.7831 17.0112 12.5517 16.9952C12.5517 16.9792 12.5437 16.9711 12.5277 16.9711ZM9.64907 12.0897C10.5606 11.5447 11.92 10.7431 13.7272 9.68507L15.7662 8.48274L9.64907 4.87577V12.0897Z" fill="#F8FAFC"/>
</svg>
